<?xml version="1.0" standalone="no"?>
<!DOCTYPE svg PUBLIC "-//W3C//DTD SVG 1.1//EN" "http://www.w3.org/Graphics/SVG/1.1/DTD/svg11.dtd" >
<svg xmlns="http://www.w3.org/2000/svg">
<metadata>Generated by IcoMoon</metadata>
<defs>
<font id="icomoon" horiz-adv-x="1024">
<font-face units-per-em="1024" ascent="960" descent="-64" />
<missing-glyph horiz-adv-x="1024" />
<glyph unicode="&#x20;" d="" horiz-adv-x="512" />
<glyph unicode="&#xe600;" d="M921.6 94.4h-286.4v16h284.8c20.8 0 38.4 17.6 38.4 38.4v608c0 20.8-17.6 38.4-38.4 38.4h-816c-20.8 0-38.4-17.6-38.4-38.4v-608c0-20.8 17.6-38.4 38.4-38.4h294.4v-16h-292.8c-30.4 0-54.4 24-54.4 54.4v608c0 30.4 24 54.4 54.4 54.4h816c30.4 0 54.4-24 54.4-54.4v-608c0-30.4-25.6-54.4-54.4-54.4zM830.4 172.8h-188.8v16h188.8c20.8 0 38.4 17.6 38.4 38.4v449.6c0 20.8-17.6 38.4-38.4 38.4h-593.6c-20.8 0-38.4-17.6-38.4-38.4v-449.6c0-20.8 17.6-38.4 38.4-38.4h92.8v-16h-92.8c-30.4 0-54.4 24-54.4 54.4v449.6c0 30.4 24 54.4 54.4 54.4h593.6c30.4 0 54.4-24 54.4-54.4v-449.6c0-30.4-24-54.4-54.4-54.4zM118.4 409.6c-22.4 0-41.6 19.2-41.6 41.6s19.2 41.6 41.6 41.6 41.6-19.2 41.6-41.6-17.6-41.6-41.6-41.6zM118.4 478.4c-14.4 0-25.6-11.2-25.6-25.6s11.2-25.6 25.6-25.6 25.6 11.2 25.6 25.6-11.2 25.6-25.6 25.6zM524.8-16c-25.6 0-51.2 9.6-72 25.6s-35.2 38.4-41.6 65.6l-3.2 1.6c-9.6 8-17.6 16-27.2 24-14.4 11.2-30.4 22.4-43.2 28.8-1.6 1.6-4.8 3.2-6.4 3.2-1.6 1.6-4.8 3.2-6.4 3.2-8 4.8-12.8 11.2-14.4 19.2s0 16 4.8 22.4c8 9.6 19.2 16 33.6 17.6s27.2-1.6 38.4-9.6c6.4-4.8 14.4-9.6 20.8-14.4v107.2c0 6.4 0 12.8 0 19.2v11.2c0 20.8 0 40 0 60.8 0 19.2 16 33.6 33.6 33.6 19.2 0 35.2-14.4 35.2-33.6 0-4.8 0-11.2 0-16v-48c6.4 3.2 12.8 6.4 20.8 6.4h3.2c14.4-1.6 27.2-11.2 30.4-25.6 1.6 1.6 3.2 1.6 4.8 3.2 12.8 8 30.4 4.8 41.6-6.4 4.8-4.8 8-11.2 9.6-17.6 4.8 3.2 11.2 6.4 17.6 6.4 16 1.6 33.6-11.2 36.8-28.8 0-1.6 0-4.8 0-6.4v-40c0-33.6 0-67.2 0-99.2 0-35.2-14.4-65.6-43.2-88-20.8-16-46.4-25.6-73.6-25.6zM356.8 180.8c-1.6 0-3.2 0-4.8 0-11.2-1.6-17.6-4.8-24-11.2-3.2-3.2-3.2-6.4-1.6-8 0-3.2 3.2-6.4 8-9.6 1.6-1.6 4.8-3.2 6.4-3.2 1.6-1.6 4.8-3.2 6.4-3.2 14.4-8 30.4-17.6 44.8-30.4 9.6-8 19.2-16 27.2-24l3.2-3.2c1.6-1.6 3.2-4.8 4.8-8 4.8-24 17.6-41.6 35.2-57.6 17.6-14.4 40-22.4 62.4-22.4s44.8 8 62.4 22.4c24 19.2 36.8 44.8 38.4 75.2 0 33.6 0 67.2 0 99.2v40c0 1.6 0 3.2 0 3.2-1.6 9.6-9.6 16-17.6 16-12.8-1.6-19.2-8-19.2-19.2v-38.4c0-1.6 0-1.6 0-3.2l-1.6-8h-16l-1.6 11.2v60.8c0 4.8-1.6 9.6-4.8 12.8-4.8 4.8-9.6 6.4-12.8 6.4s-6.4-1.6-9.6-1.6c-6.4-3.2-9.6-9.6-9.6-17.6v-52.8c0-1.6 0-1.6 0-3.2v-8l-8-1.6h-8l-1.6 9.6v35.2c0 12.8 0 25.6 0 40 0 9.6-8 17.6-16 17.6 0 0 0 0 0 0-12.8 0-20.8-8-20.8-19.2v-75.2h-16l-1.6 11.2v140.8c0 4.8 0 11.2 0 16 0 9.6-8 17.6-19.2 17.6-9.6 0-17.6-8-19.2-17.6 0-20.8 0-40 0-60.8v-11.2c0-6.4 0-12.8 0-19.2v-139.2l-24 17.6c-8 4.8-14.4 11.2-22.4 16-3.2 6.4-11.2 8-19.2 8z" />
<glyph unicode="&#xe601;" d="M252.8 59.2h-76.8c-14.4 0-27.2 12.8-27.2 27.2v356.8c0 14.4 12.8 27.2 27.2 27.2h76.8c14.4 0 27.2-12.8 27.2-27.2v-356.8c1.6-16-11.2-27.2-27.2-27.2zM176 451.2c-4.8 0-8-3.2-8-8v-356.8c0-4.8 3.2-8 8-8h76.8c4.8 0 8 3.2 8 8v356.8c0 4.8-3.2 8-8 8h-76.8zM476.8 59.2h-76.8c-14.4 0-27.2 12.8-27.2 27.2v448c0 14.4 12.8 27.2 27.2 27.2h76.8c14.4 0 27.2-12.8 27.2-27.2v-448c1.6-16-11.2-27.2-27.2-27.2zM400 542.4c-4.8 0-8-3.2-8-8v-448c0-4.8 3.2-8 8-8h76.8c4.8 0 8 3.2 8 8v448c0 4.8-3.2 8-8 8h-76.8zM697.6 59.2h-76.8c-14.4 0-27.2 12.8-27.2 27.2v385.6c0 14.4 12.8 27.2 27.2 27.2h76.8c14.4 0 27.2-12.8 27.2-27.2v-385.6c0-16-11.2-27.2-27.2-27.2zM620.8 480c-4.8 0-8-3.2-8-8v-385.6c0-4.8 3.2-8 8-8h76.8c4.8 0 8 3.2 8 8v385.6c0 4.8-3.2 8-8 8h-76.8zM894.4 59.2h-76.8c-14.4 0-27.2 12.8-27.2 27.2v544c0 14.4 12.8 27.2 27.2 27.2h76.8c14.4 0 27.2-12.8 27.2-27.2v-544c0-16-11.2-27.2-27.2-27.2zM817.6 638.4c-4.8 0-8-3.2-8-8v-544c0-4.8 3.2-8 8-8h76.8c4.8 0 8 3.2 8 8v544c0 4.8-3.2 8-8 8h-76.8zM64 516.8l-6.4 17.6 361.6 140.8c22.4 8 54.4 4.8 75.2-9.6l120-84.8c12.8-9.6 32-6.4 43.2 4.8l171.2 185.6 14.4-12.8-174.4-185.6c-17.6-19.2-48-22.4-68.8-8l-120 84.8c-14.4 9.6-40 12.8-56 6.4l-360-139.2zM867.2 745.6v0c-9.6 0-17.6 3.2-25.6 11.2l-22.4 20.8c-14.4 12.8-12.8 24-11.2 30.4s8 16 25.6 17.6l40 6.4c14.4 1.6 25.6-1.6 32-11.2s6.4-20.8 1.6-32l-8-19.2c-6.4-14.4-17.6-24-32-24zM880 812.8c-1.6 0-3.2 0-4.8 0l-38.4-6.4c-6.4-1.6-9.6-3.2-9.6-4.8s0-4.8 6.4-9.6l22.4-20.8c9.6-9.6 20.8-6.4 25.6 4.8l8 19.2c1.6 4.8 3.2 9.6 0 12.8-1.6 3.2-6.4 4.8-9.6 4.8z" />
<glyph unicode="&#xe602;" d="M763.2-14.4h-491.2c-30.4 0-54.4 24-54.4 54.4v816c0 30.4 24 54.4 54.4 54.4h491.2c30.4 0 54.4-24 54.4-54.4v-816c0-28.8-25.6-54.4-54.4-54.4zM272 894.4c-20.8 0-38.4-17.6-38.4-38.4v-816c0-20.8 17.6-38.4 38.4-38.4h491.2c20.8 0 38.4 17.6 38.4 38.4v816c0 20.8-17.6 38.4-38.4 38.4h-491.2zM696 164.8h-358.4c-30.4 0-54.4 24-54.4 54.4v545.6c0 30.4 24 54.4 54.4 54.4h358.4c30.4 0 54.4-24 54.4-54.4v-545.6c0-30.4-24-54.4-54.4-54.4zM337.6 803.2c-20.8 0-38.4-17.6-38.4-38.4v-545.6c0-20.8 17.6-38.4 38.4-38.4h358.4c20.8 0 38.4 17.6 38.4 38.4v545.6c0 20.8-17.6 38.4-38.4 38.4h-358.4zM516.8 24c-33.6 0-62.4 27.2-62.4 62.4s27.2 62.4 62.4 62.4 62.4-27.2 62.4-62.4-28.8-62.4-62.4-62.4zM516.8 131.2c-25.6 0-46.4-20.8-46.4-46.4s20.8-46.4 46.4-46.4 46.4 20.8 46.4 46.4-20.8 46.4-46.4 46.4z" />
<glyph unicode="&#xe603;" d="M804.8-16l-299.2 428.8c-38.4-19.2-80-28.8-121.6-28.8-152 0-275.2 123.2-275.2 275.2 1.6 150.4 124.8 273.6 275.2 273.6 152 0 275.2-123.2 275.2-275.2 0-70.4-25.6-136-73.6-187.2l300.8-430.4-81.6-56zM510.4 433.6l297.6-425.6 54.4 38.4-297.6 425.6 4.8 4.8c48 48 73.6 112 73.6 180.8 0 142.4-116.8 259.2-259.2 259.2s-257.6-116.8-257.6-259.2 115.2-257.6 257.6-257.6c41.6 0 83.2 9.6 120 30.4l6.4 3.2z" />
<glyph unicode="&#xe604;" d="M512 540.8c-102.4 0-185.6 83.2-185.6 185.6s83.2 184 185.6 184c102.4 0 185.6-83.2 185.6-185.6s-83.2-184-185.6-184zM512 894.4c-92.8 0-169.6-75.2-169.6-169.6s76.8-168 169.6-168c92.8 0 169.6 75.2 169.6 169.6s-76.8 168-169.6 168zM798.4-6.4h-16v444.8c0 56-46.4 102.4-102.4 102.4h-336c-56 0-102.4-46.4-102.4-102.4v-444.8h-16v444.8c0 65.6 52.8 118.4 118.4 118.4h336c65.6 0 118.4-52.8 118.4-118.4v-444.8z" />
<glyph unicode="&#xe605;" d="M803.2 17.6h-600c-30.4 0-54.4 24-54.4 54.4v787.2c0 30.4 24 54.4 54.4 54.4h600c30.4 0 54.4-24 54.4-54.4v-787.2c0-28.8-25.6-54.4-54.4-54.4zM203.2 897.6c-20.8 0-38.4-17.6-38.4-38.4v-787.2c0-20.8 17.6-38.4 38.4-38.4h600c20.8 0 38.4 17.6 38.4 38.4v787.2c0 20.8-17.6 38.4-38.4 38.4h-600zM281.6 761.6h444.8v-16h-444.8v16zM281.6 617.6h444.8v-16h-444.8v16zM281.6 473.6h444.8v-16h-444.8v16zM281.6 329.6h444.8v-16h-444.8v16zM281.6 185.6h444.8v-16h-444.8v16z" />
<glyph unicode="&#xe606;" d="M886.4 17.6h-65.6c-14.4 0-25.6 11.2-25.6 25.6v348.8c0 12.8 6.4 30.4 12.8 41.6l28.8 38.4c8 11.2 24 11.2 32 0l28.8-38.4c8-9.6 12.8-28.8 12.8-41.6v-348.8c0-14.4-11.2-25.6-24-25.6zM852.8 473.6c-3.2 0-6.4-1.6-9.6-6.4l-28.8-38.4c-6.4-9.6-12.8-25.6-12.8-36.8v-348.8c0-9.6 8-17.6 17.6-17.6h65.6c9.6 0 17.6 8 17.6 17.6v348.8c0 11.2-4.8 27.2-12.8 36.8l-28.8 38.4c0 4.8-3.2 6.4-8 6.4zM864 345.6h8v-288h-8v288zM828.8 345.6h8v-288h-8v288zM828.8 459.2h46.4v-8h-46.4v8zM697.6 16h-524.8c-33.6 0-62.4 27.2-62.4 62.4v696c0 33.6 27.2 62.4 62.4 62.4h524.8c33.6 0 62.4-27.2 62.4-62.4v-696c0-35.2-28.8-62.4-62.4-62.4zM172.8 817.6c-25.6 0-44.8-19.2-44.8-43.2v-696c0-24 19.2-43.2 43.2-43.2h524.8c24 0 43.2 19.2 43.2 43.2v696c0 24-19.2 43.2-43.2 43.2h-523.2zM201.6 776l-12.8 12.8c27.2 27.2-1.6 70.4-1.6 70.4l16 9.6c0-1.6 35.2-56-1.6-92.8zM256 776l-12.8 12.8c27.2 27.2-1.6 70.4-1.6 70.4l16 9.6c0-1.6 35.2-56-1.6-92.8zM296 776l-12.8 12.8c27.2 27.2-1.6 70.4-1.6 70.4l16 9.6c1.6-1.6 35.2-56-1.6-92.8zM352 776l-12.8 12.8c27.2 27.2-1.6 70.4-1.6 70.4l16 9.6c0-1.6 33.6-56-1.6-92.8zM395.2 776l-12.8 12.8c27.2 27.2-1.6 70.4-1.6 70.4l16 9.6c1.6-1.6 35.2-56-1.6-92.8zM449.6 776l-12.8 12.8c27.2 27.2 0 70.4-1.6 72l16 9.6c1.6-3.2 35.2-57.6-1.6-94.4zM491.2 776l-12.8 12.8c27.2 27.2-1.6 70.4-1.6 70.4l16 9.6c1.6-1.6 35.2-56-1.6-92.8zM545.6 776l-12.8 12.8c27.2 27.2-1.6 70.4-1.6 70.4l16 9.6c1.6-1.6 35.2-56-1.6-92.8zM585.6 776l-12.8 12.8c27.2 27.2-1.6 70.4-1.6 70.4l16 9.6c0-1.6 35.2-56-1.6-92.8zM640 776l-12.8 12.8c27.2 27.2-1.6 70.4-1.6 70.4l16 9.6c0-1.6 35.2-56-1.6-92.8zM680 776l-12.8 12.8c27.2 27.2-1.6 70.4-1.6 70.4l16 9.6c1.6-1.6 35.2-56-1.6-92.8z" />
<glyph unicode="&#xe607;" d="M220.8 65.6c-11.2 0-16 4.8-19.2 8-4.8 4.8-6.4 12.8-4.8 22.4 1.6 8 0 14.4-6.4 20.8-9.6 12.8-32 20.8-54.4 20.8-48 0-86.4 46.4-86.4 102.4v464c0 56 46.4 102.4 102.4 102.4h718.4c56 0 102.4-46.4 102.4-102.4v-465.6c0-56-46.4-102.4-102.4-102.4h-427.2c-51.2 0-124.8-22.4-166.4-49.6-22.4-12.8-41.6-20.8-56-20.8zM152 790.4c-48 0-86.4-38.4-86.4-86.4v-465.6c0-48 32-86.4 70.4-86.4 28.8 0 52.8-9.6 67.2-25.6 8-9.6 11.2-22.4 9.6-35.2 0-4.8 0-8 1.6-9.6s4.8-1.6 8-1.6c11.2 0 28.8 6.4 46.4 19.2 43.2 28.8 121.6 52.8 174.4 52.8h428.8c48 0 86.4 38.4 86.4 86.4v465.6c0 48-38.4 86.4-86.4 86.4h-720z" />
<glyph unicode="&#xe608;" d="M504 908.8c259.2 0 470.4-211.2 470.4-470.4 0-168-88-315.2-220.8-398.4 0 1.6 1.6 3.2 0 3.2l-1.6 4.8c128 81.6 214.4 225.6 214.4 390.4 0 254.4-208 462.4-462.4 462.4-163.2 0-308.8-86.4-390.4-214.4l-3.2 1.6c-1.6 1.6-3.2 0-4.8 0 83.2 132.8 230.4 220.8 398.4 220.8zM504 838.4c220.8 0 400-179.2 400-400 0-139.2-70.4-260.8-179.2-332.8l-1.6 3.2c-1.6 1.6-3.2 3.2-4.8 1.6 107.2 68.8 177.6 190.4 177.6 328 0 216-176 392-392 392-140.8 0-264-73.6-332.8-185.6 1.6 1.6 0 4.8-1.6 6.4l-3.2 1.6c70.4 110.4 195.2 185.6 337.6 185.6zM748.8 44.8c1.6 0 1.6 1.6 3.2 1.6l1.6-4.8c0-1.6 0-3.2 0-3.2s0 0 0 0c-1.6 0-1.6-1.6-3.2-1.6 0 0 0 0 0 0-1.6 0-3.2 1.6-3.2 1.6l-1.6 3.2c1.6 3.2 3.2 3.2 3.2 3.2zM752 38.4c0 0 1.6 0 3.2 1.6-1.6-1.6-1.6-1.6-3.2-1.6 0 0 0 0 0 0zM752 48c-1.6-1.6-1.6-1.6-3.2-1.6l-27.2 57.6c1.6 0 1.6 1.6 3.2 1.6l27.2-57.6zM752 36.8c0 0 0 0 0 0-72-44.8-156.8-70.4-248-70.4-259.2 0-470.4 211.2-470.4 470.4 0 91.2 25.6 176 70.4 248 0-1.6 0-3.2 1.6-4.8l3.2-1.6c-43.2-70.4-68.8-153.6-68.8-241.6 0-256 208-462.4 462.4-462.4 88 0 171.2 25.6 241.6 68.8l1.6-3.2c3.2-1.6 4.8-3.2 6.4-3.2zM721.6 102.4l27.2-57.6c-1.6-1.6-1.6-1.6-3.2-1.6l-27.2 57.6c1.6 0 3.2 0 3.2 1.6zM718.4 100.8l27.2-57.6c-70.4-43.2-153.6-68.8-241.6-68.8-254.4 0-462.4 208-462.4 462.4 0 88 25.6 171.2 68.8 241.6l52.8-33.6c-36.8-60.8-57.6-131.2-57.6-208 0-220.8 179.2-400 400-400 76.8 0 150.4 24 212.8 64zM721.6 102.4c-1.6-1.6-1.6-1.6-3.2-1.6l-1.6 3.2c0 1.6 0 3.2 1.6 4.8 0 0 0 0 1.6 0s4.8 0 4.8-1.6l1.6-3.2c-1.6 0-3.2 0-4.8-1.6zM716.8 104l1.6-3.2c-62.4-40-136-62.4-214.4-62.4-220.8 0-400 179.2-400 400 0 76.8 20.8 147.2 57.6 208l3.2-1.6c1.6 0 1.6 0 1.6 0 1.6 0 3.2 0 3.2 1.6-35.2-62.4-57.6-132.8-57.6-208 0-216 176-392 392-392 78.4 0 152 24 214.4 64-1.6-1.6-1.6-4.8-1.6-6.4zM169.6 649.6c1.6-1.6 3.2-3.2 1.6-6.4-1.6-1.6-1.6-1.6-3.2-1.6s-1.6 0-1.6 0l-3.2 1.6c1.6 1.6 3.2 4.8 4.8 6.4h1.6zM113.6 686.4l52.8-33.6c-1.6-1.6-3.2-4.8-4.8-6.4l-52.8 33.6c1.6 1.6 3.2 3.2 4.8 6.4zM113.6 686.4c-1.6-1.6-3.2-4.8-4.8-6.4l-3.2 1.6c-1.6 1.6-1.6 3.2-1.6 4.8 0 0 0 1.6 1.6 1.6 1.6 1.6 3.2 1.6 4.8 0l3.2-1.6zM104 688c1.6 0 1.6 0 0 0 1.6 0 0-1.6 0 0 0-1.6 0-1.6 0 0z" />
<glyph unicode="&#xe609;" d="M860.8 249.6h-684.8c-30.4 0-54.4 24-54.4 54.4v404.8c0 30.4 24 54.4 54.4 54.4h684.8c30.4 0 54.4-24 54.4-54.4v-404.8c0-28.8-24-54.4-54.4-54.4zM176 747.2c-20.8 0-38.4-17.6-38.4-38.4v-404.8c0-20.8 17.6-38.4 38.4-38.4h684.8c20.8 0 38.4 17.6 38.4 38.4v404.8c0 20.8-17.6 38.4-38.4 38.4h-684.8zM62.4 225.6h899.2v-16h-899.2v16zM416 406.4c-11.2 0-20.8 4.8-30.4 14.4l-76.8 81.6 11.2 11.2 76.8-81.6c6.4-6.4 14.4-9.6 20.8-9.6 6.4 1.6 12.8 6.4 17.6 16l54.4 116.8c6.4 14.4 17.6 22.4 28.8 24 12.8 1.6 25.6-3.2 35.2-14.4l68.8-73.6c6.4-6.4 14.4-9.6 22.4-9.6 8 1.6 14.4 6.4 17.6 14.4l51.2 99.2 14.4-8-51.2-99.2c-6.4-12.8-17.6-22.4-30.4-24-9.6 0-22.4 4.8-32 16l-68.8 73.6c-6.4 6.4-14.4 9.6-20.8 9.6-6.4-1.6-12.8-6.4-17.6-16l-54.4-116.8c-6.4-14.4-17.6-22.4-28.8-24-4.8 0-6.4 0-8 0z" />
<glyph unicode="&#xe60a;" d="M776 35.2h-540.8c-25.6 0-46.4 20.8-46.4 46.4v449.6c0 25.6 20.8 46.4 46.4 46.4h540.8c25.6 0 46.4-20.8 46.4-46.4v-449.6c0-25.6-20.8-46.4-46.4-46.4zM235.2 558.4c-16 0-27.2-12.8-27.2-27.2v-449.6c0-16 12.8-27.2 27.2-27.2h540.8c16 0 27.2 12.8 27.2 27.2v449.6c0 16-12.8 27.2-27.2 27.2h-540.8zM937.6 560l-432 292.8-432-292.8-9.6 16 441.6 297.6 443.2-297.6zM545.6 35.2h-97.6c-25.6 0-46.4 20.8-46.4 46.4v227.2c0 25.6 20.8 46.4 46.4 46.4h97.6c25.6 0 46.4-20.8 46.4-46.4v-227.2c0-25.6-20.8-46.4-46.4-46.4zM448 337.6c-16 0-27.2-12.8-27.2-27.2v-227.2c0-16 12.8-27.2 27.2-27.2h97.6c16 0 27.2 12.8 27.2 27.2v225.6c0 16-12.8 27.2-27.2 27.2h-97.6z" />
<glyph unicode="&#xe60b;" d="M908.8 136h-798.4c-30.4 0-54.4 24-54.4 54.4v521.6c0 30.4 24 54.4 54.4 54.4h798.4c30.4 0 54.4-24 54.4-54.4v-521.6c0-30.4-24-54.4-54.4-54.4zM110.4 750.4c-20.8 0-38.4-17.6-38.4-38.4v-521.6c0-20.8 17.6-38.4 38.4-38.4h798.4c20.8 0 38.4 17.6 38.4 38.4v521.6c0 20.8-17.6 38.4-38.4 38.4h-798.4zM510.4 428.8c-16 0-30.4 4.8-43.2 12.8l-408 280 9.6 12.8 408-280c17.6-12.8 49.6-12.8 67.2 0l408 280 9.6-12.8-409.6-281.6c-11.2-8-27.2-11.2-41.6-11.2z" />
<glyph unicode="&#xe60c;" d="M187.2 81.6c-12.8 0-24 4.8-32 12.8-8 9.6-11.2 20.8-9.6 35.2l16 102.4c3.2 27.2 22.4 64 41.6 83.2l529.6 529.6c20.8 20.8 56 20.8 76.8 0l99.2-99.2c9.6-9.6 16-24 16-38.4s-6.4-28.8-16-38.4l-529.6-529.6c-19.2-19.2-56-38.4-83.2-41.6l-102.4-16c-1.6 0-4.8 0-6.4 0zM771.2 844.8c-9.6 0-19.2-3.2-27.2-11.2l-529.6-529.6c-16-16-33.6-51.2-36.8-73.6l-16-102.4c-1.6-9.6 0-17.6 4.8-22.4 4.8-6.4 14.4-9.6 24-8l102.4 16c24 3.2 57.6 20.8 73.6 36.8l529.6 529.6c14.4 14.4 14.4 40 0 54.4l-99.2 99.2c-4.8 6.4-14.4 11.2-25.6 11.2zM770.757 763.846l11.314-11.314-435.574-435.574-11.314 11.314 435.574 435.574zM825.092 710.083l11.314-11.314-435.574-435.574-11.314 11.314 435.574 435.574zM165.945 172.508l71.276-71.276-11.314-11.314-71.276 71.276 11.314 11.314z" />
<glyph unicode="&#xe60d;" d="M784 153.6h-532.8c-116.8 0-211.2 73.6-211.2 166.4 0 30.4 11.2 60.8 30.4 86.4-4.8 11.2-8 24-8 35.2 0 60.8 62.4 110.4 139.2 112-4.8 12.8-6.4 25.6-6.4 40 0 88 91.2 158.4 201.6 158.4 97.6 0 179.2-54.4 198.4-128 25.6 11.2 54.4 17.6 83.2 17.6 91.2 0 164.8-59.2 164.8-129.6 0-3.2 0-6.4 0-9.6 4.8 0 9.6 1.6 16 1.6 59.2 0 107.2-38.4 107.2-86.4 0-3.2 0-8-1.6-11.2 19.2-25.6 30.4-56 30.4-84.8 0-94.4-94.4-168-211.2-168zM203.2 536c-68.8 0-124.8-43.2-124.8-96 0-11.2 3.2-22.4 8-33.6l1.6-4.8-1.6-1.6c-19.2-24-30.4-51.2-30.4-80 0-83.2 88-150.4 195.2-150.4h532.8c107.2 0 195.2 67.2 195.2 150.4 0 27.2-9.6 54.4-28.8 78.4l-1.6 3.2v3.2c1.6 4.8 1.6 8 1.6 11.2 0 38.4-41.6 70.4-91.2 70.4-8 0-14.4-1.6-24-3.2l-12.8-3.2 1.6 11.2c1.6 6.4 1.6 12.8 1.6 17.6 0 62.4-67.2 113.6-148.8 113.6-30.4 0-60.8-6.4-84.8-20.8l-9.6-4.8-1.6 11.2c-11.2 72-89.6 126.4-184 126.4-102.4 0-185.6-64-185.6-142.4 0-14.4 3.2-30.4 9.6-44.8l4.8-11.2h-12.8c-3.2 0-6.4 0-9.6 0z" />
<glyph unicode="&#xe60e;" d="M512-8c-249.6 0-451.2 203.2-451.2 451.2s201.6 452.8 451.2 452.8 451.2-203.2 451.2-451.2-201.6-452.8-451.2-452.8zM512 880c-240 0-435.2-195.2-435.2-436.8s195.2-435.2 435.2-435.2 435.2 195.2 435.2 435.2-195.2 436.8-435.2 436.8zM323.2 100.8l-89.6 248 14.4 4.8 78.4-217.6c49.6 78.4 294.4 448 492.8 512l4.8-16c-212.8-68.8-489.6-515.2-492.8-518.4l-8-12.8z" />
<glyph unicode="&#xe60f;" d="M1084.157-64h-96.251l-2.005 2.005c-12.031 12.7-24.731 24.731-36.762 37.431-32.084 32.752-65.504 66.841-98.924 98.924-11.363 10.695-30.747 18.715-46.12 18.715-54.141 0.668-112.961 1.337-183.812 1.337-47.457 0-94.914 0-143.039-0.668h-21.389c-20.052 0-41.441 1.337-61.493 2.674s-41.441 2.674-60.825 2.674c-33.42 0-58.151-4.010-78.872-13.368-40.773-17.379-74.193-56.146-106.277-93.577-14.705-16.71-29.41-34.089-44.783-49.462-1.337-1.337-2.005-2.005-2.674-3.342-0.668-0.668-1.337-1.337-2.005-2.005l-2.005-2.674h-96.919v1021.995l5.347 0.668c64.167 10.695 114.966-10.695 155.070-64.836 9.358-12.7 20.721-22.726 32.752-34.089 10.026-9.358 20.721-19.384 30.078-30.078 17.379-20.721 36.762-29.41 67.509-29.41h2.005c30.747 0.668 60.825 0.668 91.572 1.337 48.794 0.668 98.924 2.005 148.386 2.005 64.836 0 118.308-1.337 169.107-4.679 10.026-0.668 19.384-0.668 28.073-0.668 86.893 0 148.386 30.747 194.507 96.251 38.099 54.141 89.567 76.198 154.402 65.504l5.347-0.668v-1021.995zM993.922-50.632h76.867v995.927c-57.483 8.021-101.598-12.031-135.687-60.825-48.794-69.514-113.629-101.598-205.201-101.598 0 0 0 0 0 0-9.358 0-19.384 0.668-29.41 0.668-50.131 3.342-103.603 4.679-167.77 4.679-49.462 0-99.593-0.668-147.718-2.005-30.747-0.668-61.493-1.337-91.572-1.337h-2.005c-34.757 0-58.151 10.026-78.204 34.089-8.689 10.026-18.715 20.052-28.742 28.742-12.031 11.363-24.063 22.726-34.089 36.094-36.762 49.462-80.877 68.846-137.023 61.493v-995.258h76.867c1.337 1.337 2.005 2.674 3.342 4.010 15.373 14.705 30.078 32.084 44.115 48.125 33.42 38.768 67.509 78.204 110.956 96.919 22.726 9.358 49.462 14.037 84.219 14.037 20.052 0 41.441-1.337 62.162-2.674 20.052-1.337 40.773-2.674 60.825-2.674h21.389c47.457 0 94.914 0.668 143.039 0.668 70.851 0 129.003-0.668 183.812-1.337 18.715 0 41.441-9.358 55.478-22.726 34.089-32.084 67.509-66.172 99.593-98.924 11.363-12.031 22.726-24.063 34.757-36.094zM88.23 7.52v405.055l169.107 14.037v-54.141c0-61.493 0-120.313-0.668-179.133 0-7.352-4.010-16.042-9.358-21.389-36.762-38.099-73.525-76.198-113.629-116.303l-45.452-48.125zM101.598 399.875v-359.603l23.394 23.394c39.436 40.104 76.867 78.204 112.961 116.303 3.342 3.342 5.347 8.689 5.347 12.7 0.668 58.82 0.668 117.64 0.668 179.133v40.104l-142.371-12.031zM996.595 10.193l-41.441 41.441c-42.11 42.778-82.214 82.883-121.65 122.987-6.016 6.016-6.016 16.042-6.016 18.715 0 58.82 0 118.308 0 180.47v52.136l169.107-13.368v-402.381zM840.856 411.906v-37.431c0-62.162 0-120.982 0-180.47 0-4.679 1.337-8.689 2.674-10.026 39.436-40.104 79.54-80.209 121.65-122.987l18.047-18.715v357.598l-142.371 12.031zM759.311 178.632h-434.465v537.399h434.465v-537.399zM338.214 192h407.728v510.663h-407.728v-510.663zM827.488 467.384v54.141c0 62.83 0 122.319 0.668 182.475 0 9.358 7.352 18.047 10.695 21.389 36.094 37.431 72.856 74.862 111.624 114.966l46.12 47.457v-406.392l-169.107-14.037zM983.227 854.392l-23.394-23.394c-38.768-40.104-76.198-78.204-111.624-114.966-4.010-4.010-6.684-9.358-6.684-12.031-0.668-60.157-0.668-119.645-0.668-182.475v-39.436l142.371 11.363v360.94zM256.668 468.052l-169.107 12.7v380.992l15.373 12.031 34.089-35.426c36.094-37.431 73.525-76.198 109.619-114.966 4.679-4.679 9.358-13.368 9.358-21.389 0.668-59.488 0.668-117.64 0.668-179.802v-54.141zM100.93 493.452l142.371-10.695v40.104c0 62.162 0 120.313-0.668 179.802 0 3.342-2.674 8.689-6.016 12.7-36.094 38.099-73.525 76.867-109.619 114.298l-25.399 26.736-0.668-0.668v-362.277z" horiz-adv-x="1084" />
<glyph unicode="&#xe610;" d="M175.872-64c-96.976 0-175.872 78.896-175.872 175.872 0 75.060 47.118 141.355 117.796 166.010v610.894c0 39.448 31.777 71.225 71.225 71.225s71.225-31.777 71.225-71.225v-622.399c56.98-30.682 92.045-89.853 92.045-154.504-0.548-96.976-79.444-175.872-176.419-175.872zM189.021 949.042c-32.873 0-60.268-26.846-60.268-60.268v-618.564l-3.835-1.096c-67.938-22.463-113.96-85.47-113.96-157.243 0-90.949 73.965-164.914 164.914-164.914s164.914 73.965 164.914 164.914c0 61.911-33.969 117.796-88.758 146.286l-2.739 1.644v628.974c0 33.421-26.846 60.268-60.268 60.268zM444.336 224.736c-65.199 0-118.343 53.145-118.343 118.343 0 49.858 31.23 94.236 77.8 111.221v402.149c0 26.846 21.915 48.762 48.762 48.762s48.762-21.915 48.762-48.762v-410.367c37.256-20.82 60.815-60.268 60.815-103.003 0.548-65.199-52.597-118.343-117.796-118.343zM453.102 894.254c-20.82 0-37.804-16.984-37.804-37.804v-410.367l-3.835-1.096c-44.379-14.245-74.513-55.337-74.513-101.907 0-59.172 48.214-107.386 107.386-107.386s107.386 48.214 107.386 107.386c0 39.996-21.915 76.704-57.528 95.332l-3.287 1.096v416.942c0 20.82-16.984 37.804-37.804 37.804z" horiz-adv-x="563" />
<glyph unicode="&#xe611;" d="M177.304-64c-97.654 0-177.304 79.651-177.304 177.304 0 75.286 46.917 141.843 117.294 166.939v606.653c0 40.371 32.733 73.104 73.104 73.104s73.104-32.733 73.104-73.104v-618.655c56.737-31.096 91.653-90.562 91.653-154.937-0.546-97.654-80.196-177.304-177.85-177.304zM190.397 944.725c-31.642 0-57.828-25.641-57.828-57.828v-617.564l-5.456-1.637c-67.103-21.822-112.384-83.469-112.384-154.391 0-89.47 72.558-162.029 162.029-162.029s162.029 72.558 162.029 162.029c0 60.556-33.279 115.657-87.288 144.026l-4.364 2.182v627.384c1.091 32.188-25.095 57.828-56.737 57.828z" horiz-adv-x="355" />
<glyph unicode="&#xe612;" d="M512-64c-282.483 0-512 230.087-512 512 0 282.483 229.517 512 512 512s512-229.517 512-512c0-281.913-230.087-512-512-512zM512 946.331c-275.079 0-498.331-223.253-498.331-498.331 0-274.509 223.253-498.331 498.331-498.331s498.331 223.253 498.331 498.331c0 275.079-223.822 498.331-498.331 498.331zM349.686 541.402c-41.575 0-75.177 33.602-75.177 75.177s33.602 75.177 75.177 75.177 75.177-33.602 75.177-75.177-33.602-75.177-75.177-75.177zM349.686 678.087c-34.171 0-61.508-27.337-61.508-61.508s27.337-61.508 61.508-61.508 61.508 27.337 61.508 61.508-27.337 61.508-61.508 61.508zM666.91 541.402c-41.575 0-75.177 33.602-75.177 75.177s33.602 75.177 75.177 75.177 75.177-33.602 75.177-75.177-34.171-75.177-75.177-75.177zM666.91 678.087c-34.171 0-61.508-27.337-61.508-61.508s27.337-61.508 61.508-61.508 61.508 27.337 61.508 61.508-27.907 61.508-61.508 61.508zM512 104.578c-212.432 0-235.782 263.119-235.782 265.397l-0.57 7.404h473.273l-0.57-7.404c-0.57-2.278-23.92-265.397-236.352-265.397zM290.456 364.28c5.126-41.575 41.006-245.464 221.544-245.464s216.418 203.889 221.544 245.464h-443.088z" />
<glyph unicode="&#xe613;" d="M512-64c-282.483 0-512 230.087-512 512 0 282.483 229.517 512 512 512s512-229.517 512-512c0-281.913-230.087-512-512-512zM512 946.331c-275.079 0-498.331-223.253-498.331-498.331 0-274.509 223.253-498.331 498.331-498.331s498.331 223.253 498.331 498.331c0 275.079-223.822 498.331-498.331 498.331zM349.686 541.402c-41.575 0-75.177 33.602-75.177 75.177s33.602 75.177 75.177 75.177 75.177-33.602 75.177-75.177-33.602-75.177-75.177-75.177zM349.686 678.087c-34.171 0-61.508-27.337-61.508-61.508s27.337-61.508 61.508-61.508 61.508 27.337 61.508 61.508-27.337 61.508-61.508 61.508zM666.91 541.402c-41.575 0-75.177 33.602-75.177 75.177s33.602 75.177 75.177 75.177 75.177-33.602 75.177-75.177-34.171-75.177-75.177-75.177zM666.91 678.087c-34.171 0-61.508-27.337-61.508-61.508s27.337-61.508 61.508-61.508 61.508 27.337 61.508 61.508-27.907 61.508-61.508 61.508zM748.352 104.578h-473.273l0.57 7.404c0 2.848 23.35 265.397 235.782 265.397s235.782-263.119 235.782-265.397l1.139-7.404zM290.456 118.247h443.088c-5.126 41.575-41.006 245.464-221.544 245.464s-216.418-203.889-221.544-245.464z" />
<glyph unicode="&#xe614;" d="M167.26-63.381c-20.443 0-50.178 3.097-73.718 29.116-15.487 16.726-23.54 37.169-23.54 59.47 0 15.487 0 30.355 0 45.222 0 4.956 0 9.912 0 14.868-48.939 13.009-69.382 35.31-70.001 75.577-0.619 53.895 14.248 73.718 69.382 89.205v395.848c-54.514 16.106-69.382 35.31-69.382 85.488 0 43.983 17.345 63.806 70.001 79.913v14.248c0 14.248 0 28.496 0 43.364 0.619 48.939 33.452 84.869 81.771 89.825 7.434 0.619 14.868 1.239 21.062 1.239 31.593 0 55.134-9.292 73.099-29.116 15.487-17.345 23.54-37.788 23.54-61.328 0-70.001 0-140.622 0-210.623v-107.789c0-150.534 0-301.687 0-452.22 0-6.195 0-13.009 0-19.204 0-19.823 0-39.647-0.619-60.090-1.858-43.364-35.93-78.674-79.913-82.391-8.673 0-15.487-0.619-21.682-0.619zM172.835 946.991c-6.195 0-12.39-0.619-19.823-1.239-42.125-3.717-70.621-35.31-70.621-77.435 0-14.248 0-28.496 0-42.744v-24.16l-4.336-1.239c-51.417-14.248-65.665-29.116-65.665-68.762 0-45.842 11.77-59.47 64.426-74.957l4.336-1.239v-414.432l-4.336-1.239c-53.275-14.248-65.045-29.116-64.426-78.054 0.619-35.93 17.965-53.895 65.045-65.045l4.956-1.239v-4.956c0-6.814 0-13.009 0-19.823 0-14.868 0-30.355 0-45.222 0-19.204 7.434-36.549 20.443-51.417 15.487-17.345 35.31-24.779 64.426-24.779 6.195 0 13.009 0.619 21.062 1.239 37.788 3.097 66.904 33.452 68.762 70.621 0.619 19.823 0.619 39.647 0.619 59.47 0 6.195 0 13.009 0 19.204 0 150.534 0 301.687 0 452.22v107.789c0 70.001 0 140.622 0 210.623 0 20.443-6.814 37.788-20.443 52.656-16.106 16.726-35.93 24.16-64.426 24.16zM427.441-64c-48.319 0-83.010 26.018-92.922 69.382-3.717 16.726-3.717 34.691-3.097 52.036 0 6.195 0.619 13.009 0 19.204 0 9.292 0 10.531-7.434 11.77-17.345 3.097-29.735 19.204-29.735 39.647 0 24.779 0 50.797 0 78.674 0 21.682 11.151 35.93 31.593 40.886 4.956 1.239 5.575 1.858 5.575 8.053 0 42.744 0 86.108 0 128.852 0 86.108 0 171.596-0.619 257.704 0 1.239-3.097 4.956-4.336 5.575-23.54 8.053-32.213 20.443-32.213 44.603s0 48.939 0 73.099c0 22.921 9.912 37.169 30.974 42.744 6.195 1.858 6.814 3.097 6.195 9.292 0 8.673 0 17.345 0 26.018 0 6.195 0 11.77 0 17.965-0.619 57.612 32.832 94.161 89.825 97.878 52.656 3.717 91.683-19.204 105.312-61.328 3.097-9.912 4.956-21.062 4.956-31.593 0-112.126 0-224.252 0-336.377v-186.463c0-104.073 0-208.765 0-312.837 0-41.505-18.584-71.86-53.275-84.869-16.106-6.814-34.071-9.912-50.797-9.912zM432.397 947.61c-3.097 0-6.814 0-10.531-0.619-50.178-3.097-78.674-34.691-78.054-85.488 0-6.195 0-11.77 0-17.965 0-8.673 0-17.345 0-26.018s-1.239-17.965-15.487-21.682c-15.487-4.336-21.682-13.009-21.682-30.974 0-24.16 0-48.319 0-73.099 0-19.204 5.575-26.638 24.16-32.832 5.575-1.858 13.009-9.912 13.009-17.345 0.619-86.108 0.619-171.596 0.619-257.704 0-42.744 0-86.108 0-128.852 0-8.673-1.858-16.726-14.868-19.823-14.868-3.717-22.301-13.009-22.301-29.116 0-28.496-0.619-53.895 0-78.674 0-14.248 8.053-25.399 19.823-27.257 17.345-3.097 17.965-14.868 17.965-24.16 0-6.195 0-13.009 0-19.204-0.619-16.726-0.619-33.452 2.478-48.939 12.39-53.895 60.709-60.090 81.152-60.090 15.487 0 31.593 3.097 46.461 8.673 37.169 14.248 45.222 47.7 45.222 73.099 0 104.073 0 208.765 0 312.837v186.463c0 112.126 0 224.252 0 336.377 0 9.292-1.858 19.204-4.336 27.877-12.39 35.93-41.505 54.514-83.63 54.514zM953.379-63.381c-18.584 0-43.364 2.478-64.426 20.443-20.443 17.965-30.974 39.647-31.593 65.665-0.619 22.301-0.619 40.886 0 56.992 0 4.956 0 5.575-4.956 6.814-22.921 4.336-35.31 19.823-35.31 44.603 0 9.292 0 18.584 0 27.877 0 11.77 0 23.54 0 35.31 0 38.408 4.956 45.842 39.027 55.134v397.087c-2.478 0.619-4.336 0.619-6.814 1.239-19.823 4.956-32.213 20.443-32.213 40.886 0 27.257-0.619 53.895 0 78.674 0 21.062 11.77 35.93 30.974 40.266 8.053 1.858 9.912 4.336 9.292 13.009-0.619 9.292-0.619 18.584-0.619 27.257 0 4.336 0 9.292 0 13.629-0.619 56.373 32.832 92.922 88.586 97.878 3.717 0.619 8.053 0.619 11.77 0.619 51.417 0 89.205-29.735 96.019-76.196 2.478-16.726 1.858-34.071 1.858-50.178 0-6.195-0.619-12.39-0.619-19.204 0-211.243 0-422.485 0-633.728v-28.496c0-41.505 0-84.249 0-125.754 0-48.319-35.31-85.488-83.63-88.586-6.814-0.619-12.39-1.239-17.345-1.239zM957.096 947.61c-3.717 0-6.814 0-10.531-0.619-49.558-4.336-78.054-35.31-77.435-85.488 0-4.336 0-9.292 0-13.629 0-8.673 0-17.965 0.619-26.638 0.619-14.868-4.956-22.301-18.584-25.399s-21.062-13.009-21.062-28.496c0-25.399 0-51.417 0-78.674 0-14.868 8.053-24.779 22.921-28.496 2.478-0.619 4.956-1.239 7.434-1.239l8.673-1.858v-416.91l-4.336-1.239c-32.832-8.673-34.071-9.912-34.071-44.603 0-11.77 0-23.54 0-35.31 0-9.292 0-18.584 0-27.877 0-18.584 8.053-28.496 25.399-32.213 13.009-2.478 14.868-11.151 14.868-19.204 0-16.106 0-34.071 0-56.992 0.619-22.301 9.292-41.505 27.257-56.373 14.248-12.39 31.593-17.345 56.373-17.345 4.956 0 9.912 0 16.726 0.619 41.505 2.478 71.86 34.691 71.86 76.196 0 42.125 0 84.869 0 125.754v28.496c0 211.243 0 422.485 0 633.728 0 6.195 0 13.009 0.619 19.204 0.619 16.106 0.619 32.832-1.239 48.319-7.434 40.886-39.647 66.284-85.488 66.284zM689.481-63.381c-14.248 0-35.31 1.239-54.514 14.868-26.018 17.965-39.647 42.744-40.266 73.718-0.619 18.584-0.619 37.169 0 55.753 0 5.575 0 5.575-4.336 6.814-21.682 4.336-33.452 19.204-34.071 42.125-0.619 24.779-0.619 50.178 0 77.435 0 19.823 13.009 36.549 31.593 40.266 6.814 1.239 7.434 3.097 7.434 10.531 0 77.435 0 154.25 0 231.685v62.567c0 29.116 0 57.612 0 86.727 0 6.814 0 8.053-5.575 9.292-21.062 4.336-33.452 20.443-33.452 43.364s0 47.080 0 71.86c0 25.399 9.292 37.788 34.071 46.461 1.239 0.619 4.336 4.336 4.336 6.195 0.619 9.912 0.619 19.823 0.619 29.735 0 10.531 0 22.301 0.619 32.832 2.478 42.744 35.93 76.815 77.435 79.293 8.053 0.619 14.248 0.619 20.443 0.619 15.487 0 27.877-1.858 39.027-4.956 36.549-11.151 58.231-39.027 59.47-76.815 0.619-38.408 0.619-77.435 0.619-115.223 0-12.39 0-24.779 0-37.169 0-65.045 0-129.471 0-194.517v-476.999c0-3.097 0-5.575 0-8.673 0-8.053 0-16.106-0.619-24.16-3.717-48.319-36.549-80.532-84.869-83.63-7.434 0.619-13.009 0-17.965 0zM693.198 946.371c-6.195 0-12.39 0-19.823-0.619-35.31-2.478-63.806-31.593-65.665-68.143-0.619-11.151-0.619-21.682-0.619-32.213 0-9.912 0-20.443-0.619-30.355-0.619-6.814-6.814-14.868-13.009-17.345-20.443-6.814-25.399-14.248-26.018-34.691 0-24.779 0-48.319 0-71.24 0-11.77 4.336-26.638 23.54-30.974 14.248-3.097 15.487-12.39 15.487-21.062 0-29.116 0-57.612 0-86.727v-62.567c0-77.435 0-154.25 0-231.685 0-11.77-3.097-19.823-17.345-22.921-12.39-2.478-21.062-14.248-21.682-28.496 0-27.257 0-52.656 0-77.435 0-17.345 8.053-26.638 24.16-30.355 13.009-2.478 14.868-10.531 14.248-19.204-0.619-18.584 0-37.169 0-55.134 0.619-27.257 12.39-48.319 34.691-63.806 12.39-8.673 27.257-12.39 47.7-12.39 4.956 0 10.531 0 17.345 0.619 42.125 3.097 70.001 29.735 73.099 72.479 0.619 7.434 0.619 15.487 0.619 22.921 0 3.097 0 5.575 0 8.673v476.38c0 65.045 0 129.471 0 194.517 0 12.39 0 24.779 0 37.169 0 37.788 0 76.196-1.239 114.604-1.239 32.832-19.204 55.753-50.797 65.045-8.673 3.097-19.823 4.956-34.071 4.956zM1117.541 98.923c-22.301 0-37.169 16.106-37.788 41.505 0 9.912 0 19.823 0 29.116 0 4.336 0 8.673 0 13.629 0 4.336 0 8.053 0 12.39 0 8.673 0 17.965 0 26.638-1.239 20.443 8.053 34.691 29.116 43.983 56.373 25.399 94.161 67.523 112.126 124.515 30.355 96.019-16.726 198.234-109.648 239.119-21.682 9.292-31.593 24.16-30.974 47.080 0.619 14.248 0.619 29.116 0.619 43.364 0 11.77 0 23.54 0 35.31 0.619 26.638 14.868 42.744 37.788 42.744 5.575 0 11.151-0.619 16.726-2.478 56.992-17.345 107.17-46.461 149.295-87.966 57.612-56.992 93.541-122.038 106.551-194.517 21.682-120.179-13.629-228.588-105.312-321.51-41.505-42.125-91.683-72.479-149.914-89.825-7.434-2.478-13.009-3.097-18.584-3.097zM1117.541 785.307c-16.106 0-24.779-11.151-25.399-30.355 0-11.77 0-23.54 0-35.31 0-14.248 0-29.116-0.619-43.364-0.619-17.345 6.195-27.877 23.54-35.31 98.497-42.744 149.295-152.392 117.082-253.987-19.204-60.709-58.851-104.692-118.321-131.949-16.106-7.434-22.301-16.726-21.682-32.213 0.619-9.292 0.619-18.584 0-27.257 0-4.336 0-8.053 0-12.39s0-8.673 0-13.629 0-19.204 0-28.496c0.619-11.151 4.336-29.735 25.399-29.735 4.336 0 8.673 0.619 13.629 2.478 55.753 16.726 104.692 45.842 144.339 86.727 88.586 89.825 122.657 194.517 102.214 310.359-12.39 69.382-47.080 132.569-102.834 187.702-40.266 39.647-88.586 68.762-143.719 84.869-4.956 1.239-9.912 1.858-13.629 1.858z" horiz-adv-x="1396" />
<glyph unicode="&#xe615;" d="M850.403-64h-832.824c-9.888 0-17.579 7.691-17.579 17.579v988.841c0 9.888 7.691 17.579 17.579 17.579h832.824c9.888 0 17.579-7.691 17.579-17.579v-988.841c0-9.888-7.691-17.579-17.579-17.579zM17.579 946.815c-2.197 0-4.395-2.197-4.395-4.395v-988.841c0-2.197 2.197-4.395 4.395-4.395h832.824c2.197 0 4.395 2.197 4.395 4.395v988.841c0 2.197-2.197 4.395-4.395 4.395h-832.824zM169.202 755.639h543.863v-13.185h-543.863v13.185zM169.202 615.554h543.863v-13.185h-543.863v13.185zM169.202 454.592h543.863v-13.185h-543.863v13.185zM169.202 294.18h543.863v-13.185h-543.863v13.185zM169.202 129.373h543.863v-13.185h-543.863v13.185z" horiz-adv-x="868" />
<glyph unicode="&#xe616;" d="M799.602-64h-799.602v1024h799.602v-1024zM13.719-50.281h772.165v996.563h-772.165v-996.563zM142.576 359.319c-55.365 0-100.44 45.076-100.44 100.44s45.076 100.44 100.44 100.44 100.44-45.076 100.44-100.44-45.076-100.44-100.44-100.44zM142.576 555.3c-52.915 0-95.541-42.626-95.541-95.541s42.626-95.541 95.541-95.541 95.541 42.626 95.541 95.541-42.626 95.541-95.541 95.541z" horiz-adv-x="800" />
<glyph unicode="&#xe617;" d="M1352.312-64h-1084.675l-2.494 2.494c-0.831 0-0.831 0.831-1.662 1.662-106.39 15.792-184.519 72.312-231.896 168.727-9.143 18.286-15.792 38.234-22.442 57.351-2.494 9.143-5.818 17.455-9.143 25.766v108.052l1.662 2.494c0.831 0.831 0.831 1.662 1.662 2.494 0 0 0 0.831 0.831 0.831 22.442 113.039 86.442 190.338 192 231.065 34.909 13.299 73.143 19.117 106.39 23.273 2.494 0 4.987 0.831 7.481 0.831 9.974 0.831 11.636 0.831 14.13 7.481 21.61 58.182 59.844 104.727 113.039 139.636 67.325 43.221 137.143 59.844 206.961 49.039 1.662 0 3.325 0 4.156 0 3.325 0 7.481 0.831 12.468 8.312 27.429 43.221 55.688 75.636 88.935 102.234 56.519 44.052 115.532 71.481 181.195 83.948 8.312 1.662 17.455 3.325 25.766 4.987l14.13 2.494h79.792c3.325-0.831 5.818-0.831 9.143-1.662 6.649-0.831 13.299-1.662 20.779-3.325 76.468-16.623 137.974-44.883 187.844-86.442 51.532-43.221 88.104-88.104 112.208-138.805 29.091-61.506 43.221-123.844 42.39-186.182 0-1.662 3.325-7.481 7.481-9.974 7.481-4.156 14.961-8.312 23.273-11.636 8.312-4.156 17.455-8.312 25.766-13.299 56.519-34.909 95.584-82.286 118.026-140.468 6.649-18.286 12.468-36.571 17.455-54.857 2.494-8.312 4.156-16.623 6.649-24.935v-83.117c-1.662-5.818-3.325-11.636-4.987-17.455-3.325-13.299-6.649-26.597-11.636-39.896-13.299-39.065-33.247-73.974-62.338-106.39-30.753-35.74-64.831-60.675-103.896-76.468-19.948-8.312-39.896-14.13-59.844-19.948-9.143-2.494-17.455-4.987-26.597-8.312v0zM275.948-44.052h1073.039c8.312 2.494 16.623 4.987 25.766 7.481 19.117 5.818 39.065 11.636 58.182 19.117 35.74 14.961 67.325 38.234 96.416 70.649 26.597 30.753 45.714 63.169 58.182 99.74 4.156 12.468 7.481 25.766 10.805 39.065 1.662 5.818 2.494 11.636 4.156 16.623v75.636c-2.494 7.481-4.156 15.792-6.649 24.104-4.987 17.455-9.974 35.74-16.623 53.195-20.779 54.026-57.351 98.078-109.714 130.494-7.481 4.987-15.792 8.312-24.104 12.468s-16.623 8.312-24.935 13.299c-8.312 4.987-16.623 16.623-16.623 27.429 0.831 59.013-12.468 118.857-40.727 177.039-22.442 47.377-57.351 90.597-106.39 131.325-48.208 39.896-105.558 65.662-180.364 81.455-6.649 1.662-12.468 2.494-19.117 3.325-2.494 0.831-5.818 0.831-8.312 1.662h-76.468l-10.805-2.494c-9.143-1.662-17.455-3.325-26.597-4.987-62.338-11.636-118.857-38.234-172.052-81.455-30.753-24.935-58.182-55.688-84.779-97.247-9.143-14.13-20.779-19.948-36.571-16.623-13.299 1.662-26.597 3.325-39.065 3.325-52.364 0-102.234-15.792-153.766-49.039-49.87-31.584-84.779-75.636-105.558-129.662-7.481-19.117-20.779-19.948-31.584-20.779-1.662 0-4.156 0-6.649-0.831-31.584-3.325-68.987-9.143-101.403-21.61-98.909-38.234-159.584-111.377-180.364-216.935-0.831-3.325-2.494-5.818-3.325-7.481v-96.416c3.325-8.312 5.818-16.623 8.312-24.935 5.818-18.286 12.468-37.403 20.779-54.857 45.714-91.429 119.688-144.623 220.26-158.753 3.325-0.831 4.987-2.494 6.649-3.325z" horiz-adv-x="1622" />
<glyph unicode="&#xe618;" d="M427.631-64h-420.399c-3.857 0-7.232 3.375-7.232 7.232v742.448c0 3.857 3.375 7.232 7.232 7.232h420.881c3.857 0 7.232-3.375 7.232-7.232v-742.448c-0.482-3.857-3.375-7.232-7.714-7.232zM11.571-52.429h411.721v733.77h-411.721v-733.77zM397.74 705.446h-360.136c-3.857 0-7.232 3.375-7.232 7.232v121.974c0 3.857 3.375 7.232 7.232 7.232h360.136c3.857 0 7.232-3.375 7.232-7.232v-121.974c-0.482-4.339-3.375-7.232-7.232-7.232zM41.944 717.017h351.458v113.296h-351.458v-113.296zM310.478 890.576h-185.612c-3.857 0-7.232 3.375-7.232 7.232v54.96c0 3.857 2.893 7.232 7.232 7.232h185.612c3.857 0 7.232-3.375 7.232-7.232v-54.96c-0.482-3.857-3.375-7.232-7.232-7.232zM129.205 902.147h176.934v46.282h-176.934v-46.282zM427.631 681.341h-420.399c-2.893 0-5.303 1.446-6.267 4.339s0 5.303 2.411 7.232l27.962 22.177c1.446 1.446 3.857 1.928 5.785 1.928h360.136c1.928 0 4.339-0.964 5.785-1.928l27.962-22.177c2.411-1.928 2.893-4.339 2.411-7.232s-2.893-4.339-5.785-4.339zM22.177 692.911h390.026l-15.91 12.535h-358.207l-15.91-12.535zM397.74 830.313h-360.136c-2.893 0-5.303 1.446-6.267 4.339s0 5.303 2.411 7.232l84.851 58.817c1.446 0.964 3.857 1.928 5.785 1.928h185.612c1.928 0 4.339-0.482 5.785-1.928l84.851-58.817c2.411-1.446 3.375-4.339 2.411-7.232s-2.411-4.339-5.303-4.339zM54.478 841.883h325.906l-70.388 48.693h-184.648l-70.87-48.693z" horiz-adv-x="435" />
<glyph unicode="&#xe619;" d="M512-64c-282.147 0-512 229.853-512 512s229.853 512 512 512c282.147 0 512-229.853 512-512s-229.853-512-512-512zM512 944.19c-273.634 0-496.19-222.556-496.19-496.19s222.556-496.19 496.19-496.19 496.19 222.556 496.19 496.19-222.556 496.19-496.19 496.19z" />
<glyph unicode="&#xe61a;" d="M921.235 127.544c0-66.159-53.632-119.791-119.791-119.791s-119.791 53.632-119.791 119.791c0 66.159 53.632 119.791 119.791 119.791s119.791-53.632 119.791-119.791z" />
<glyph unicode="&#xe61b;" d="M801.444-0.76c-70.537 0-127.696 57.159-127.696 127.696s57.159 127.696 127.696 127.696c70.537 0 127.696-57.159 127.696-127.696s-57.159-127.696-127.696-127.696zM801.444 239.43c-61.416 0-111.886-50.47-111.886-111.886s50.47-111.886 111.886-111.886c61.416 0 111.886 50.47 111.886 111.886s-49.862 111.886-111.886 111.886z" />
</font>
</defs>
</svg>
