<?xml version="1.0" encoding="utf-8"?>
<!-- Generator: Adobe Illustrator 18.1.1, SVG Export Plug-In . SVG Version: 6.00 Build 0)  -->
<svg version="1.1" id="Layer_1" xmlns="http://www.w3.org/2000/svg" xmlns:xlink="http://www.w3.org/1999/xlink" x="0px" y="0px"
	 viewBox="0 0 43.7 43.7" enable-background="new 0 0 43.7 43.7" xml:space="preserve">
<g>
	<path fill="#6DC28C" d="M21.8,43.7C9.8,43.7,0,33.9,0,21.8C0,9.8,9.8,0,21.8,0c12,0,21.8,9.8,21.8,21.8
		C43.7,33.9,33.9,43.7,21.8,43.7z M21.8,0.6c-11.7,0-21.2,9.5-21.2,21.2C0.6,33.5,10.1,43,21.8,43C33.5,43,43,33.5,43,21.8
		C43,10.1,33.5,0.6,21.8,0.6z"/>
</g>
<g>
	<path fill="#F9064B" d="M24.2,12.8l-0.6,13.7h-3.5l-0.6-13.7H24.2z M21.8,28.1c0.7,0,1.3,0.2,1.8,0.7c0.5,0.5,0.7,1,0.7,1.7
		c0,0.7-0.2,1.2-0.7,1.7c-0.5,0.5-1,0.7-1.7,0.7c-0.7,0-1.2-0.2-1.7-0.7c-0.5-0.5-0.7-1-0.7-1.7c0-0.7,0.2-1.3,0.7-1.7
		C20.7,28.3,21.2,28.1,21.8,28.1z"/>
</g>
<g>
	<circle fill="#617F87" cx="34.2" cy="35.5" r="5.1"/>
	<path fill="#6DC28C" d="M34.2,40.9c-3,0-5.4-2.4-5.4-5.4s2.4-5.4,5.4-5.4c3,0,5.4,2.4,5.4,5.4S37.2,40.9,34.2,40.9z M34.2,30.7
		c-2.7,0-4.8,2.2-4.8,4.8s2.2,4.8,4.8,4.8c2.7,0,4.8-2.2,4.8-4.8S36.9,30.7,34.2,30.7z"/>
</g>
<g>
	<path fill="#EF5B80" d="M32.9,37.5c0.4,0.4,0.8,0.6,1.2,0.6c0.4,0,0.7-0.1,1-0.4c0.3-0.3,0.4-0.6,0.4-1c0-0.4-0.1-0.7-0.4-0.9
		c-0.2-0.2-0.6-0.4-1-0.4h-0.6v-0.5h0.3c0.4,0,0.7-0.1,1-0.3s0.4-0.5,0.4-0.9c0-0.3-0.1-0.6-0.3-0.8s-0.4-0.3-0.7-0.3
		c-0.4,0-0.8,0.2-1.3,0.6v-0.7c0.5-0.3,0.9-0.4,1.3-0.4c0.5,0,0.9,0.1,1.2,0.4c0.3,0.3,0.5,0.7,0.5,1.2c0,0.4-0.1,0.7-0.3,1
		c-0.2,0.2-0.5,0.4-0.9,0.6c0.5,0.1,0.8,0.2,1.1,0.5s0.4,0.6,0.4,1.1c0,0.6-0.2,1-0.6,1.4c-0.4,0.4-0.9,0.6-1.4,0.6
		c-0.4,0-0.8-0.1-1.3-0.4V37.5z"/>
</g>
</svg>
