<?xml version="1.0" encoding="utf-8"?>
<!-- Generator: Adobe Illustrator 18.1.1, SVG Export Plug-In . SVG Version: 6.00 Build 0)  -->
<svg version="1.1" id="Layer_1" xmlns="http://www.w3.org/2000/svg" xmlns:xlink="http://www.w3.org/1999/xlink" x="0px" y="0px"
	 viewBox="95 0 389.2 390" enable-background="new 95 0 389.2 390" xml:space="preserve">
<g>
	<path fill="#6DC28C" d="M289.6,390C182.5,390,95,302.5,95,194.6C95,87.5,182.5,0,289.6,0s194.6,87.5,194.6,194.6
		C485,302.5,397.5,390,289.6,390z M289.6,5.4c-104.4,0-189.2,84.8-189.2,189.2s84.8,189.2,189.2,189.2S478.8,299,478.8,194.6
		S394,5.4,289.6,5.4z"/>
</g>
<g>
	<path fill="#F9064B" d="M311,114.2l-5.4,122.3h-31.2L269,114.2H311z M289.6,250.8c6.2,0,11.6,1.8,16.1,6.2
		c4.5,4.5,6.2,8.9,6.2,15.2c0,6.2-1.8,10.7-6.2,15.2c-4.5,4.5-8.9,6.2-15.2,6.2c-6.2,0-10.7-1.8-15.2-6.2c-4.5-4.5-6.2-8.9-6.2-15.2
		c0-6.2,1.8-11.6,6.2-15.2C279.7,252.6,284.2,250.8,289.6,250.8z"/>
</g>
<g>
	<circle fill="#617F87" cx="400.2" cy="316.8" r="45.5"/>
	<path fill="#6DC28C" d="M400.2,365c-26.8,0-48.2-21.4-48.2-48.2c0-26.8,21.4-48.2,48.2-48.2c26.8,0,48.2,21.4,48.2,48.2
		C448.4,343.6,427,365,400.2,365z M400.2,274c-24.1,0-42.8,19.6-42.8,42.8s19.6,42.8,42.8,42.8c24.1,0,42.8-19.6,42.8-42.8
		S424.3,274,400.2,274z"/>
</g>
</svg>
