<?xml version="1.0" encoding="utf-8"?>
<!-- Generator: Adobe Illustrator 18.1.1, SVG Export Plug-In . SVG Version: 6.00 Build 0)  -->
<svg version="1.1" id="Layer_1" xmlns="http://www.w3.org/2000/svg" xmlns:xlink="http://www.w3.org/1999/xlink" x="0px" y="0px"
	 viewBox="0 0 168.2 168.2" enable-background="new 0 0 168.2 168.2" xml:space="preserve">
<g>
	<path fill="#F7F7F7" d="M84.1,168.2C37.7,168.2,0,130.5,0,84.1C0,37.7,37.7,0,84.1,0s84.1,37.7,84.1,84.1
		C168.2,130.5,130.5,168.2,84.1,168.2z M84.1,2.4C39,2.4,2.4,39,2.4,84.1c0,45.1,36.7,81.7,81.7,81.7s81.7-36.7,81.7-81.7
		C165.8,39,129.1,2.4,84.1,2.4z"/>
</g>
<g>
	<path fill="#F9064B" d="M93.4,49.3l-2.3,52.9H77.4L75,49.3H93.4z M84,108.1c2.8,0,5.1,0.9,6.9,2.7c1.8,1.8,2.7,4,2.7,6.5
		c0,2.6-0.9,4.8-2.7,6.6c-1.8,1.8-4,2.7-6.5,2.7c-2.5,0-4.7-0.9-6.5-2.7c-1.8-1.8-2.7-4-2.7-6.5c0-2.6,0.9-4.8,2.8-6.6
		C79.8,109,81.8,108.1,84,108.1z"/>
</g>
<g>
	<circle fill="#F7F7F7" cx="131.7" cy="136.8" r="19.7"/>
	<path fill="#F7F7F7" d="M131.7,157.7c-11.5,0-20.9-9.4-20.9-20.9s9.4-20.9,20.9-20.9s20.9,9.4,20.9,20.9S143.2,157.7,131.7,157.7z
		 M131.7,118.3c-10.2,0-18.5,8.3-18.5,18.5s8.3,18.5,18.5,18.5s18.5-8.3,18.5-18.5S141.9,118.3,131.7,118.3z"/>
</g>
<g>
	<g>
		<path fill="#EF5B80" d="M127.9,143.8c1,0.9,2,1.4,2.9,1.4c0.9,0,1.7-0.3,2.3-0.9c0.6-0.6,0.9-1.4,0.9-2.4c0-0.9-0.3-1.7-0.9-2.2
			c-0.6-0.6-1.4-0.9-2.4-0.9h-1.4v-1.3h0.7c1,0,1.7-0.3,2.3-0.8s0.9-1.3,0.9-2.2c0-0.8-0.2-1.5-0.7-2s-1-0.8-1.7-0.8
			c-1,0-2,0.5-3,1.4v-1.7c1.1-0.7,2.1-1,3.1-1c1.1,0,2,0.3,2.8,1c0.7,0.7,1.1,1.6,1.1,2.8c0,1-0.2,1.7-0.7,2.3c-0.5,0.6-1.1,1-2,1.4
			c1.2,0.2,2,0.6,2.6,1.2s0.9,1.5,0.9,2.6c0,1.3-0.5,2.5-1.4,3.4c-0.9,0.9-2,1.4-3.3,1.4c-1,0-2-0.3-3-1V143.8z"/>
	</g>
</g>
</svg>
