<?xml version="1.0" encoding="utf-8"?>
<!-- Generator: Adobe Illustrator 18.1.1, SVG Export Plug-In . SVG Version: 6.00 Build 0)  -->
<svg version="1.1" id="Layer_1" xmlns="http://www.w3.org/2000/svg" xmlns:xlink="http://www.w3.org/1999/xlink" x="0px" y="0px"
	 viewBox="95 0 390 390" enable-background="new 95 0 390 390" xml:space="preserve">
<g>
	<path fill="#F7F7F7" d="M290,390c-107.6,0-195-87.4-195-195S182.4,0,290,0s195,87.4,195,195S397.6,390,290,390z M290,5.6
		C185.4,5.6,100.6,90.4,100.6,195S185.7,384.4,290,384.4S479.4,299.3,479.4,195C479.4,90.4,394.3,5.6,290,5.6z"/>
</g>
<g>
	<path fill="#F9064B" d="M311.6,114.3L306.2,237h-31.8l-5.6-122.7H311.6z M289.8,250.6c6.5,0,11.8,2.1,16,6.3
		c4.2,4.2,6.3,9.3,6.3,15.1c0,6-2.1,11.1-6.3,15.3c-4.2,4.2-9.3,6.3-15.1,6.3s-10.9-2.1-15.1-6.3s-6.3-9.3-6.3-15.1
		c0-6,2.1-11.1,6.5-15.3C280,252.7,284.7,250.6,289.8,250.6z"/>
</g>
<g>
	<circle fill="#F7F7F7" cx="400.4" cy="317.2" r="45.7"/>
	<path fill="#F7F7F7" d="M400.4,365.7c-26.7,0-48.5-21.8-48.5-48.5s21.8-48.5,48.5-48.5s48.5,21.8,48.5,48.5
		C448.8,343.9,427,365.7,400.4,365.7z M400.4,274.3c-23.7,0-42.9,19.2-42.9,42.9c0,23.7,19.2,42.9,42.9,42.9
		c23.7,0,42.9-19.2,42.9-42.9S424,274.3,400.4,274.3z"/>
</g>
</svg>
