<?xml version="1.0" encoding="utf-8"?>
<!-- Generator: Adobe Illustrator 18.1.1, SVG Export Plug-In . SVG Version: 6.00 Build 0)  -->
<svg version="1.1" id="Layer_1" xmlns="http://www.w3.org/2000/svg" xmlns:xlink="http://www.w3.org/1999/xlink" x="0px" y="0px"
	 viewBox="0 0 158 140" enable-background="new 0 0 158 140" xml:space="preserve">
<path fill="#6DC28C" d="M11.7,77.9c0,0,27.9,0.6,32-8.6s13.7-47.8,36.5-47.8c26.4,0,36.5,30.5,33.3,42.4
	c-2.5,9.3-25.5,42.1-55.5,44.5C42,109.6,11.7,77.9,11.7,77.9z"/>
<polygon fill="#D795C1" points="112.8,49.9 120.3,46.5 113.2,45.3 115.4,38.3 110,42 "/>
<circle fill="#AFDAB5" cx="90.4" cy="38.9" r="6.8"/>
<path fill="none" stroke="#AFDAB5" stroke-width="15.6576" stroke-miterlimit="10" d="M75.7,60.7c0,0-3.7,23.6-27.7,23.6"/>
<polygon fill="#6DC28C" points="16,77.8 14,72.9 21,77.5 "/>
<polyline fill="none" stroke="#6DC28C" stroke-width="5.2192" stroke-miterlimit="10" points="75.7,101.3 75.7,115.2 72.9,117.8 "/>
<polyline fill="none" stroke="#6DC28C" stroke-width="5.2192" stroke-miterlimit="10" points="61.1,117.8 64.4,115.2 64.4,105.2 "/>
<line fill="none" stroke="#6DC28C" stroke-width="5.2192" stroke-miterlimit="10" x1="64.4" y1="115.2" x2="66.7" y2="117.8"/>
<line fill="none" stroke="#6DC28C" stroke-width="5.2192" stroke-miterlimit="10" x1="75.7" y1="115.2" x2="78.4" y2="118.3"/>
<circle fill="#FCFDFF" cx="92.7" cy="37.4" r="2.2"/>
<path fill="#EF5B80" d="M141,70.6V34.9c0-2.1-1.7-3.7-3.7-3.7s-3.7,1.7-3.7,3.7V70c-3.9,1.3-6.7,4.9-6.7,9.3c0,5.4,4.4,9.7,9.7,9.7
	c5.4,0,9.7-4.4,9.7-9.7C146.3,75.5,144.2,72.3,141,70.6z"/>
</svg>
