<?xml version="1.0" encoding="utf-8"?>
<!-- Generator: Adobe Illustrator 18.1.1, SVG Export Plug-In . SVG Version: 6.00 Build 0)  -->
<svg version="1.1" id="Layer_1" xmlns="http://www.w3.org/2000/svg" xmlns:xlink="http://www.w3.org/1999/xlink" x="0px" y="0px"
	 viewBox="0 0 161.9 384.1" enable-background="new 0 0 161.9 384.1" xml:space="preserve">
<g>
	<path fill="#4B5E64" d="M160.7,383.6c0,0.3-0.2,0.5-0.5,0.5H0.5c-0.3,0-0.5-0.2-0.5-0.5V101.9c0-0.3,0.2-0.5,0.5-0.5h159.6
		c0.3,0,0.5,0.2,0.5,0.5V383.6z"/>
</g>
<g>
	<path fill="#4B5E64" d="M150.5,91.7c0,0.3-0.2,0.5-0.5,0.5H13.4c-0.3,0-0.5-0.2-0.5-0.5V45.4c0-0.3,0.2-0.5,0.5-0.5H150
		c0.3,0,0.5,0.2,0.5,0.5V91.7z"/>
</g>
<g>
	<path fill="#4B5E64" d="M117.4,21.4c0,0.3-0.2,0.5-0.5,0.5H46.5c-0.3,0-0.5-0.2-0.5-0.5V0.5C46,0.2,46.2,0,46.5,0h70.4
		c0.3,0,0.5,0.2,0.5,0.5V21.4z"/>
</g>
<g>
	<path fill="#4B5E64" d="M161.5,101.3c0.3,0,0.3-0.1,0.1-0.3l-10.7-8.4c-0.2-0.2-0.6-0.3-0.9-0.3H13.4c-0.3,0-0.7,0.1-0.9,0.3
		L1.8,101c-0.2,0.2-0.2,0.3,0.1,0.3H161.5z"/>
	<path fill="none" stroke="#AABBC0" stroke-width="0.3898" stroke-miterlimit="10" d="M161.5,101.3c0.3,0,0.3-0.1,0.1-0.3l-10.7-8.4
		c-0.2-0.2-0.6-0.3-0.9-0.3H13.4c-0.3,0-0.7,0.1-0.9,0.3L1.8,101c-0.2,0.2-0.2,0.3,0.1,0.3H161.5z"/>
</g>
<g>
	<path fill="#4B5E64" d="M13.4,44.8c-0.3,0-0.3-0.1-0.1-0.3l32.3-22.4c0.2-0.2,0.7-0.3,0.9-0.3h70.4c0.3,0,0.7,0.1,0.9,0.3
		l32.3,22.4c0.2,0.2,0.2,0.3-0.1,0.3H13.4z"/>
	<path fill="none" stroke="#AABBC0" stroke-width="0.3898" stroke-miterlimit="10" d="M13.4,44.8c-0.3,0-0.3-0.1-0.1-0.3l32.3-22.4
		c0.2-0.2,0.7-0.3,0.9-0.3h70.4c0.3,0,0.7,0.1,0.9,0.3l32.3,22.4c0.2,0.2,0.2,0.3-0.1,0.3H13.4z"/>
</g>
<g>
	<path fill="#AABBC0" stroke="#AABBC0" stroke-width="1.2992" stroke-miterlimit="10" d="M54.1,159.1H27.3c-1.6,0-2.8-1.3-2.8-2.8
		v-19.7c0-1.6,1.3-2.8,2.8-2.8h26.8c1.6,0,2.8,1.3,2.8,2.8v19.7C57,157.8,55.7,159.1,54.1,159.1z"/>
	<path fill="#AABBC0" stroke="#AABBC0" stroke-width="1.2992" stroke-miterlimit="10" d="M95.1,159.1H68.3c-1.6,0-2.8-1.3-2.8-2.8
		v-19.7c0-1.6,1.3-2.8,2.8-2.8h26.8c1.6,0,2.8,1.3,2.8,2.8v19.7C97.9,157.8,96.7,159.1,95.1,159.1z"/>
	<path fill="#AABBC0" stroke="#AABBC0" stroke-width="1.2992" stroke-miterlimit="10" d="M136.1,159.1h-26.8c-1.6,0-2.8-1.3-2.8-2.8
		v-19.7c0-1.6,1.3-2.8,2.8-2.8h26.8c1.6,0,2.8,1.3,2.8,2.8v19.7C138.9,157.8,137.6,159.1,136.1,159.1z"/>
</g>
<g>
	<path fill="#AABBC0" stroke="#AABBC0" stroke-width="1.2992" stroke-miterlimit="10" d="M54.1,194.2H27.3c-1.6,0-2.8-1.3-2.8-2.8
		v-19.7c0-1.6,1.3-2.8,2.8-2.8h26.8c1.6,0,2.8,1.3,2.8,2.8v19.7C57,192.9,55.7,194.2,54.1,194.2z"/>
	<path fill="#AABBC0" stroke="#AABBC0" stroke-width="1.2992" stroke-miterlimit="10" d="M95.1,194.2H68.3c-1.6,0-2.8-1.3-2.8-2.8
		v-19.7c0-1.6,1.3-2.8,2.8-2.8h26.8c1.6,0,2.8,1.3,2.8,2.8v19.7C97.9,192.9,96.7,194.2,95.1,194.2z"/>
	<path fill="#AABBC0" stroke="#AABBC0" stroke-width="1.2992" stroke-miterlimit="10" d="M136.1,194.2h-26.8c-1.6,0-2.8-1.3-2.8-2.8
		v-19.7c0-1.6,1.3-2.8,2.8-2.8h26.8c1.6,0,2.8,1.3,2.8,2.8v19.7C138.9,192.9,137.6,194.2,136.1,194.2z"/>
</g>
<path fill="#AABBC0" stroke="#AABBC0" stroke-width="1.2992" stroke-miterlimit="10" d="M54.1,228.8H27.3c-1.6,0-2.8-1.3-2.8-2.8
	v-19.7c0-1.6,1.3-2.8,2.8-2.8h26.8c1.6,0,2.8,1.3,2.8,2.8V226C57,227.5,55.7,228.8,54.1,228.8z"/>
<path fill="#AABBC0" stroke="#AABBC0" stroke-width="1.2992" stroke-miterlimit="10" d="M95.1,228.8H68.3c-1.6,0-2.8-1.3-2.8-2.8
	v-19.7c0-1.6,1.3-2.8,2.8-2.8h26.8c1.6,0,2.8,1.3,2.8,2.8V226C97.9,227.5,96.7,228.8,95.1,228.8z"/>
<path fill="#FFDA3E" stroke="#FFDA3E" stroke-width="1.2992" stroke-miterlimit="10" d="M136.1,228.8h-26.8c-1.6,0-2.8-1.3-2.8-2.8
	v-19.7c0-1.6,1.3-2.8,2.8-2.8h26.8c1.6,0,2.8,1.3,2.8,2.8V226C138.9,227.5,137.6,228.8,136.1,228.8z"/>
<path fill="#838E80" stroke="#838E80" stroke-width="1.2992" stroke-miterlimit="10" d="M54.1,262.9H27.3c-1.6,0-2.8-1.3-2.8-2.8
	v-19.7c0-1.6,1.3-2.8,2.8-2.8h26.8c1.6,0,2.8,1.3,2.8,2.8V260C57,261.6,55.7,262.9,54.1,262.9z"/>
<path fill="#AABBC0" stroke="#AABBC0" stroke-width="1.2992" stroke-miterlimit="10" d="M95.1,262.9H68.3c-1.6,0-2.8-1.3-2.8-2.8
	v-19.7c0-1.6,1.3-2.8,2.8-2.8h26.8c1.6,0,2.8,1.3,2.8,2.8V260C97.9,261.6,96.7,262.9,95.1,262.9z"/>
<path fill="#AABBC0" stroke="#AABBC0" stroke-width="1.2992" stroke-miterlimit="10" d="M136.1,262.9h-26.8c-1.6,0-2.8-1.3-2.8-2.8
	v-19.7c0-1.6,1.3-2.8,2.8-2.8h26.8c1.6,0,2.8,1.3,2.8,2.8V260C138.9,261.6,137.6,262.9,136.1,262.9z"/>
<g>
	<path fill="#AABBC0" stroke="#AABBC0" stroke-width="1.2992" stroke-miterlimit="10" d="M54.1,296.8H27.3c-1.6,0-2.8-1.3-2.8-2.8
		v-19.7c0-1.6,1.3-2.8,2.8-2.8h26.8c1.6,0,2.8,1.3,2.8,2.8V294C57,295.5,55.7,296.8,54.1,296.8z"/>
	<path fill="#AABBC0" stroke="#AABBC0" stroke-width="1.2992" stroke-miterlimit="10" d="M95.1,296.8H68.3c-1.6,0-2.8-1.3-2.8-2.8
		v-19.7c0-1.6,1.3-2.8,2.8-2.8h26.8c1.6,0,2.8,1.3,2.8,2.8V294C97.9,295.5,96.7,296.8,95.1,296.8z"/>
	<path fill="#AABBC0" stroke="#AABBC0" stroke-width="1.2992" stroke-miterlimit="10" d="M136.1,296.8h-26.8c-1.6,0-2.8-1.3-2.8-2.8
		v-19.7c0-1.6,1.3-2.8,2.8-2.8h26.8c1.6,0,2.8,1.3,2.8,2.8V294C138.9,295.5,137.6,296.8,136.1,296.8z"/>
</g>
<path fill="#95D8EB" stroke="#95D8EB" stroke-width="1.2992" stroke-miterlimit="10" d="M113.5,367.8H50.2c-1.6,0-2.8-1.3-2.8-2.8
	v-43.2c0-1.6,1.3-2.8,2.8-2.8h63.3c1.6,0,2.8,1.3,2.8,2.8V365C116.3,366.6,115.1,367.8,113.5,367.8z"/>
<g>
	<path fill="#AABBC0" stroke="#AABBC0" stroke-width="1.2992" stroke-miterlimit="10" d="M76.7,367.8H49.9c-1.6,0-2.8-1.3-2.8-2.8
		v-43.2c0-1.6,1.3-2.8,2.8-2.8h26.8c1.6,0,2.8,1.3,2.8,2.8V365C79.5,366.6,78.2,367.8,76.7,367.8z"/>
	<path fill="#AABBC0" stroke="#AABBC0" stroke-width="1.2992" stroke-miterlimit="10" d="M113.5,367.8H86.7c-1.6,0-2.8-1.3-2.8-2.8
		v-43.2c0-1.6,1.3-2.8,2.8-2.8h26.8c1.6,0,2.8,1.3,2.8,2.8V365C116.3,366.6,115.1,367.8,113.5,367.8z"/>
</g>
<path fill="#495356" d="M90.8,349.5h-2.9c-1.6,0-2.8-1.3-2.8-2.8V345c0-1.6,1.3-2.8,2.8-2.8h2.9c1.6,0,2.8,1.3,2.8,2.8v1.7
	C93.6,348.2,92.4,349.5,90.8,349.5z"/>
<path fill="#495356" d="M75,349.5h-2.9c-1.6,0-2.8-1.3-2.8-2.8V345c0-1.6,1.3-2.8,2.8-2.8H75c1.6,0,2.8,1.3,2.8,2.8v1.7
	C77.8,348.2,76.6,349.5,75,349.5z"/>
<text transform="matrix(1 0 0 1 26.8981 253.0632)" fill="#484445" font-family="'OpenSans-Bold'" font-size="9.2963">21 C</text>
<g>
	<line fill="none" stroke="#495356" stroke-width="1.0281" stroke-miterlimit="10" x1="51.3" y1="245" x2="51.3" y2="252.8"/>
</g>
<g>
	<path fill="none" stroke="#495356" stroke-width="1.0281" stroke-miterlimit="10" d="M49.8,252.8c-0.2,0-0.3,0.1-0.1,0.3l1.3,1.3
		c0.2,0.2,0.4,0.1,0.5,0l1-1.2c0.1-0.2,0.1-0.3-0.2-0.3H49.8z"/>
</g>
<text transform="matrix(1 0 0 1 109.6129 219.0662)" fill="#484445" font-family="'OpenSans-Bold'" font-size="9.2963">24 C</text>
<g>
	<line fill="none" stroke="#ED325A" stroke-width="1.2992" stroke-miterlimit="10" x1="133.2" y1="220.8" x2="133.2" y2="210.9"/>
</g>
<g>
	<path fill="none" stroke="#ED325A" stroke-width="1.2992" stroke-miterlimit="10" d="M131.3,210.9c-0.3,0-0.4-0.2-0.2-0.4l1.6-1.6
		c0.2-0.2,0.5-0.2,0.7,0l1.2,1.5c0.2,0.2,0.1,0.4-0.2,0.4H131.3z"/>
</g>
<text transform="matrix(1 0 0 1 54.1813 332.3142)" fill="#484445" font-family="'OpenSans-Bold'" font-size="9.2963">10 C</text>
<path fill="#AABBC0" stroke="#AABBC0" stroke-width="1.2992" stroke-miterlimit="10" d="M64.8,81.3H37.9c-1.6,0-2.8-1.3-2.8-2.8
	V58.7c0-1.6,1.3-2.8,2.8-2.8h26.8c1.6,0,2.8,1.3,2.8,2.8v19.7C67.6,80,66.3,81.3,64.8,81.3z"/>
<path fill="#AABBC0" stroke="#AABBC0" stroke-width="1.2992" stroke-miterlimit="10" d="M121,81.3H94.2c-1.6,0-2.8-1.3-2.8-2.8V58.7
	c0-1.6,1.3-2.8,2.8-2.8H121c1.6,0,2.8,1.3,2.8,2.8v19.7C123.9,80,122.6,81.3,121,81.3z"/>
<line fill="#AABBC0" stroke="#717373" stroke-width="0.3148" stroke-miterlimit="10" x1="38.4" y1="174.1" x2="38.4" y2="187.4"/>
<path fill="#ED325A" stroke="#ED325A" stroke-width="0.3148" stroke-miterlimit="10" d="M38.9,173.5c0,0,0.5,3.8,0,4.4
	c-0.5,0.5,6.3,0.4,6.3,0.4s0.3-3-0.7-4.8C43.5,171.8,41.2,175.1,38.9,173.5z"/>
<line fill="#AABBC0" stroke="#717373" stroke-width="0.3" stroke-miterlimit="10" x1="121.4" y1="139.6" x2="121.4" y2="152.4"/>
<path fill="#ED325A" stroke="#ED325A" stroke-width="0.3" stroke-miterlimit="10" d="M121.9,139.1c0,0,0.5,3.6,0,4.2
	c-0.5,0.5,6,0.4,6,0.4s0.3-2.9-0.6-4.6S124.2,140.7,121.9,139.1z"/>
<line fill="#AABBC0" stroke="#717373" stroke-width="0.3898" stroke-miterlimit="10" x1="104.3" y1="62.7" x2="104.3" y2="79.2"/>
<path fill="#ED325A" stroke="#ED325A" stroke-width="0.3898" stroke-miterlimit="10" d="M105,62.1c0,0,0.7,4.7,0,5.4
	s7.8,0.5,7.8,0.5s0.4-3.7-0.8-5.9C110.7,59.9,107.9,64,105,62.1z"/>
<circle fill="#75BF43" stroke="#FFFFFF" stroke-width="0.3898" stroke-miterlimit="10" cx="81.9" cy="214.1" r="6.5"/>
<path fill="#75BF43" stroke="#FFFFFF" stroke-width="0.3898" stroke-miterlimit="10" d="M84.6,211.5c-3.3,3.3-2.7,6.6-2.7,5.4"/>
<line fill="#75BF43" stroke="#FFFFFF" stroke-width="0.3898" stroke-miterlimit="10" x1="79.3" y1="215.2" x2="81.9" y2="217.2"/>
<circle fill="#75BF43" stroke="#FFFFFF" stroke-width="0.3898" stroke-miterlimit="10" cx="123.4" cy="179.6" r="6.5"/>
<path fill="#75BF43" stroke="#FFFFFF" stroke-width="0.3898" stroke-miterlimit="10" d="M126.1,177c-3.3,3.3-2.7,6.6-2.7,5.4"/>
<line fill="#75BF43" stroke="#FFFFFF" stroke-width="0.3898" stroke-miterlimit="10" x1="120.7" y1="180.7" x2="123.3" y2="182.7"/>
<line fill="#AABBC0" stroke="#717373" stroke-width="0.3898" stroke-miterlimit="10" x1="102.1" y1="344.7" x2="102.1" y2="361.2"/>
<path fill="#ED325A" stroke="#ED325A" stroke-width="0.3898" stroke-miterlimit="10" d="M102.8,344c0,0,0.7,4.7,0,5.4
	s7.8,0.5,7.8,0.5s0.4-3.7-0.8-5.9C108.5,341.8,105.7,346,102.8,344z"/>
<g>
	<text transform="matrix(1 0 0 1 43.1356 79.207)" fill="#F7F7F7" font-family="'AkzidenzGrotesk-Bold'" font-size="7.7613">Ap. 26</text>
</g>
<g>
	<text transform="matrix(1 0 0 1 99.8358 79.207)" fill="#F7F7F7" font-family="'AkzidenzGrotesk-Bold'" font-size="7.7613">Ap. 25</text>
</g>
<g>
	<text transform="matrix(1 0 0 1 115.1637 157.8253)" fill="#F7F7F7" font-family="'AkzidenzGrotesk-Bold'" font-size="7.7613">Ap. 25</text>
</g>
<g>
	<text transform="matrix(1 0 0 1 75.1848 157.9853)" fill="#F7F7F7" font-family="'AkzidenzGrotesk-Bold'" font-size="7.7613">Ap. 25</text>
</g>
<g>
	<text transform="matrix(1 0 0 1 35.0915 157.9853)" fill="#F7F7F7" font-family="'AkzidenzGrotesk-Bold'" font-size="7.7613">Ap. 25</text>
</g>
<g>
	<text transform="matrix(1 0 0 1 34.5883 193.4266)" fill="#F7F7F7" font-family="'AkzidenzGrotesk-Bold'" font-size="7.7613">Ap. 25</text>
</g>
<g>
	<text transform="matrix(1 0 0 1 75.1848 193.2676)" fill="#F7F7F7" font-family="'AkzidenzGrotesk-Bold'" font-size="7.7613">Ap. 25</text>
</g>
<g>
	<text transform="matrix(1 0 0 1 116.3335 193.4256)" fill="#F7F7F7" font-family="'AkzidenzGrotesk-Bold'" font-size="7.7613">Ap. 25</text>
</g>
<g>
	<text transform="matrix(1 0 0 1 75.1853 228.0088)" fill="#F7F7F7" font-family="'AkzidenzGrotesk-Bold'" font-size="7.7613">Ap. 25</text>
</g>
<g>
	<text transform="matrix(1 0 0 1 33.7196 228.0088)" fill="#F7F7F7" font-family="'AkzidenzGrotesk-Bold'" font-size="7.7613">Ap. 25</text>
</g>
<g>
	<text transform="matrix(1 0 0 1 75.4369 261.8358)" fill="#F7F7F7" font-family="'AkzidenzGrotesk-Bold'" font-size="7.7613">Ap. 25</text>
</g>
<g>
	<text transform="matrix(1 0 0 1 116.3335 261.8455)" fill="#F7F7F7" font-family="'AkzidenzGrotesk-Bold'" font-size="7.7613">Ap. 25</text>
</g>
<g>
	<text transform="matrix(1 0 0 1 34.8399 262.0976)" fill="#F7F7F7" font-family="'AkzidenzGrotesk-Bold'" font-size="7.7613">Ap. 25</text>
</g>
<g>
	<text transform="matrix(1 0 0 1 34.5883 296.0927)" fill="#F7F7F7" font-family="'AkzidenzGrotesk-Bold'" font-size="7.7613">Ap. 25</text>
</g>
<g>
	<text transform="matrix(1 0 0 1 75.6241 296.0927)" fill="#F7F7F7" font-family="'AkzidenzGrotesk-Bold'" font-size="7.7613">Ap. 25</text>
</g>
<g>
	<text transform="matrix(1 0 0 1 117.5707 296.0927)" fill="#F7F7F7" font-family="'AkzidenzGrotesk-Bold'" font-size="7.7613">Ap. 25</text>
</g>
<g>
	<text transform="matrix(1 0 0 1 116.3335 227.9157)" fill="#F7F7F7" font-family="'AkzidenzGrotesk-Bold'" font-size="7.7613">Ap. 25</text>
</g>
</svg>
