<?xml version="1.0" encoding="utf-8"?>
<!-- Generator: Adobe Illustrator 18.1.1, SVG Export Plug-In . SVG Version: 6.00 Build 0)  -->
<svg version="1.1" id="Layer_1" xmlns="http://www.w3.org/2000/svg" xmlns:xlink="http://www.w3.org/1999/xlink" x="0px" y="0px"
	 viewBox="0 0 242.8 37.1" enable-background="new 0 0 242.8 37.1" xml:space="preserve">
<text transform="matrix(1 0 0 1 4.190684e-05 29.3892)" fill="#6DC28C" font-family="'AkzidenzGrotesk-Bold'" font-size="34.3331">Tweet the Heat</text>
<path fill="#6DC28C" d="M230.5,5.4c0,0,2.5,0.1,2.9-0.8c0.4-0.8,1.2-4.4,3.3-4.4c2.4,0,3.3,2.8,3,3.9c-0.2,0.9-2.3,3.8-5.1,4.1
	C233.3,8.3,230.5,5.4,230.5,5.4z"/>
<polygon fill="#D795C1" points="239.8,2.9 240.4,2.6 239.8,2.5 240,1.8 239.5,2.2 "/>
<circle fill="#AFDAB5" cx="237.7" cy="1.9" r="0.6"/>
<path fill="none" stroke="#AFDAB5" stroke-width="1.4305" stroke-miterlimit="10" d="M236.4,3.9c0,0-0.3,2.2-2.5,2.2"/>
<polygon fill="#6DC28C" points="230.9,5.4 230.7,5 231.4,5.4 "/>
<polyline fill="none" stroke="#6DC28C" stroke-width="0.4768" stroke-miterlimit="10" points="236.4,7.8 236.4,9 236.1,9.3 "/>
<polyline fill="none" stroke="#6DC28C" stroke-width="0.4768" stroke-miterlimit="10" points="235,9.3 235.3,9 235.3,8.1 "/>
<line fill="none" stroke="#6DC28C" stroke-width="0.4768" stroke-miterlimit="10" x1="235.3" y1="9" x2="235.5" y2="9.3"/>
<line fill="none" stroke="#6DC28C" stroke-width="0.4768" stroke-miterlimit="10" x1="236.4" y1="9" x2="236.6" y2="9.3"/>
<circle fill="#FCFDFF" cx="237.9" cy="1.7" r="0.2"/>
<path fill="#EF5B80" d="M242.3,4.8V1.5c0-0.2-0.2-0.3-0.3-0.3s-0.3,0.2-0.3,0.3v3.2c-0.4,0.1-0.6,0.5-0.6,0.8c0,0.5,0.4,0.9,0.9,0.9
	s0.9-0.4,0.9-0.9C242.8,5.2,242.6,4.9,242.3,4.8z"/>
</svg>
