<?xml version="1.0" encoding="utf-8"?>
<!-- Generator: Adobe Illustrator 18.1.1, SVG Export Plug-In . SVG Version: 6.00 Build 0)  -->
<svg version="1.1" id="Layer_1" xmlns="http://www.w3.org/2000/svg" xmlns:xlink="http://www.w3.org/1999/xlink" x="0px" y="0px"
	 viewBox="0 0 242.8 37.1" enable-background="new 0 0 242.8 37.1" xml:space="preserve">
<g>
	<path fill="#6DC28C" d="M6.9,9.2H0.2V4.9h18v4.3h-6.7v20.2H6.9V9.2z"/>
	<path fill="#6DC28C" d="M16.2,12h4.3l2.9,11.8h0.1L26.8,12h3.8l3.3,11.8h0.1L36.8,12h4.3l-5,17.4H32l-3.3-11.6h-0.1l-3.3,11.6h-4.1
		L16.2,12z"/>
	<path fill="#6DC28C" d="M46.8,21.7c0,0.6,0.2,1.2,0.4,1.8c0.3,0.5,0.6,1,1,1.3c0.4,0.4,0.9,0.7,1.4,0.9c0.5,0.2,1.1,0.3,1.6,0.3
		c0.8,0,1.5-0.1,2.1-0.3c0.6-0.2,1.1-0.4,1.5-0.7c0.4-0.3,0.7-0.5,0.9-0.8c0.2-0.3,0.4-0.5,0.5-0.6l3.5,2.1c-0.3,0.5-0.7,1-1.2,1.5
		c-0.5,0.5-1.1,1-1.8,1.4c-0.7,0.4-1.5,0.7-2.4,1c-0.9,0.3-2,0.4-3.2,0.4c-1.4,0-2.7-0.2-3.8-0.7c-1.1-0.5-2-1.1-2.8-1.9
		s-1.3-1.8-1.7-2.9c-0.4-1.1-0.6-2.3-0.6-3.6c0-1.3,0.2-2.5,0.6-3.6c0.4-1.1,1-2.1,1.7-2.9c0.8-0.8,1.7-1.4,2.8-1.9s2.4-0.7,3.8-0.7
		c1.4,0,2.7,0.2,3.7,0.7s1.9,1.1,2.6,2c0.7,0.9,1.2,1.9,1.5,3.2c0.3,1.2,0.5,2.6,0.5,4.2H46.8z M55.2,18.5c0-0.2-0.1-0.5-0.2-0.9
		s-0.4-0.8-0.7-1.1c-0.3-0.4-0.7-0.7-1.2-1C52.6,15.2,52,15,51.3,15c-1.2,0-2.2,0.3-3,1c-0.8,0.7-1.3,1.5-1.5,2.4H55.2z"/>
	<path fill="#6DC28C" d="M65.9,21.7c0,0.6,0.2,1.2,0.4,1.8c0.3,0.5,0.6,1,1,1.3c0.4,0.4,0.9,0.7,1.4,0.9c0.5,0.2,1.1,0.3,1.6,0.3
		c0.8,0,1.5-0.1,2.1-0.3c0.6-0.2,1.1-0.4,1.5-0.7c0.4-0.3,0.7-0.5,0.9-0.8c0.2-0.3,0.4-0.5,0.5-0.6l3.5,2.1c-0.3,0.5-0.7,1-1.2,1.5
		c-0.5,0.5-1.1,1-1.8,1.4c-0.7,0.4-1.5,0.7-2.4,1c-0.9,0.3-2,0.4-3.2,0.4c-1.4,0-2.7-0.2-3.8-0.7c-1.1-0.5-2-1.1-2.8-1.9
		s-1.3-1.8-1.7-2.9c-0.4-1.1-0.6-2.3-0.6-3.6c0-1.3,0.2-2.5,0.6-3.6c0.4-1.1,1-2.1,1.7-2.9c0.8-0.8,1.7-1.4,2.8-1.9s2.4-0.7,3.8-0.7
		c1.4,0,2.7,0.2,3.7,0.7s1.9,1.1,2.6,2c0.7,0.9,1.2,1.9,1.5,3.2c0.3,1.2,0.5,2.6,0.5,4.2H65.9z M74.3,18.5c0-0.2-0.1-0.5-0.2-0.9
		s-0.4-0.8-0.7-1.1c-0.3-0.4-0.7-0.7-1.2-1c-0.5-0.3-1.1-0.4-1.8-0.4c-1.2,0-2.2,0.3-3,1c-0.8,0.7-1.3,1.5-1.5,2.4H74.3z"/>
	<path fill="#6DC28C" d="M82.3,5.9h4.2V12h3.7v3h-3.7v8.8c0,0.7,0.1,1.2,0.3,1.6c0.2,0.4,0.7,0.5,1.5,0.5c0.3,0,0.6,0,0.9-0.1
		s0.6-0.1,0.9-0.1v3.4c-0.5,0.1-1,0.2-1.5,0.3c-0.5,0.1-1.1,0.1-1.8,0.1c-1.7,0-2.9-0.4-3.6-1.1c-0.7-0.7-1-1.8-1-3.1V15h-2.5v-3
		h2.5V5.9z"/>
	<path fill="#6DC28C" d="M102.7,5.9h4.2V12h3.7v3h-3.7v8.8c0,0.7,0.1,1.2,0.3,1.6c0.2,0.4,0.7,0.5,1.5,0.5c0.3,0,0.6,0,0.9-0.1
		s0.6-0.1,0.9-0.1v3.4c-0.5,0.1-1,0.2-1.5,0.3c-0.5,0.1-1.1,0.1-1.8,0.1c-1.7,0-2.9-0.4-3.6-1.1c-0.7-0.7-1-1.8-1-3.1V15h-2.5v-3
		h2.5V5.9z"/>
	<path fill="#6DC28C" d="M112.8,4.9h4.2v8.8h0.1c0.5-0.6,1.1-1.1,1.9-1.5c0.8-0.4,1.8-0.6,3-0.6c0.7,0,1.5,0.1,2.2,0.3
		c0.8,0.2,1.4,0.5,2,1c0.6,0.5,1.1,1.1,1.5,1.9c0.4,0.8,0.6,1.8,0.6,3.1v11.5h-4.2V19.1c0-1.2-0.2-2.1-0.7-2.6
		c-0.5-0.5-1.3-0.8-2.4-0.8c-0.8,0-1.5,0.1-2,0.4c-0.5,0.3-0.9,0.7-1.3,1.2c-0.3,0.5-0.5,1-0.7,1.6c-0.1,0.6-0.2,1.1-0.2,1.6v8.9
		h-4.2V4.9z"/>
	<path fill="#6DC28C" d="M135.8,21.7c0,0.6,0.2,1.2,0.4,1.8s0.6,1,1,1.3c0.4,0.4,0.9,0.7,1.4,0.9c0.5,0.2,1.1,0.3,1.6,0.3
		c0.8,0,1.5-0.1,2.1-0.3c0.6-0.2,1.1-0.4,1.5-0.7c0.4-0.3,0.7-0.5,0.9-0.8s0.4-0.5,0.5-0.6l3.5,2.1c-0.3,0.5-0.7,1-1.2,1.5
		c-0.5,0.5-1.1,1-1.8,1.4c-0.7,0.4-1.5,0.7-2.4,1c-0.9,0.3-2,0.4-3.2,0.4c-1.4,0-2.7-0.2-3.8-0.7c-1.1-0.5-2-1.1-2.8-1.9
		c-0.8-0.8-1.3-1.8-1.7-2.9c-0.4-1.1-0.6-2.3-0.6-3.6c0-1.3,0.2-2.5,0.6-3.6c0.4-1.1,1-2.1,1.7-2.9c0.8-0.8,1.7-1.4,2.8-1.9
		s2.4-0.7,3.8-0.7c1.4,0,2.7,0.2,3.7,0.7s1.9,1.1,2.6,2c0.7,0.9,1.2,1.9,1.5,3.2c0.3,1.2,0.5,2.6,0.5,4.2H135.8z M144.3,18.5
		c0-0.2-0.1-0.5-0.2-0.9c-0.1-0.4-0.4-0.8-0.7-1.1c-0.3-0.4-0.7-0.7-1.2-1c-0.5-0.3-1.1-0.4-1.8-0.4c-1.2,0-2.2,0.3-3,1
		c-0.8,0.7-1.3,1.5-1.5,2.4H144.3z"/>
	<path fill="#6DC28C" d="M161.3,4.9h4.6v9.2h10.5V4.9h4.6v24.4h-4.6v-11h-10.5v11h-4.6V4.9z"/>
	<path fill="#6DC28C" d="M188.6,21.7c0,0.6,0.2,1.2,0.4,1.8s0.6,1,1,1.3c0.4,0.4,0.9,0.7,1.4,0.9c0.5,0.2,1.1,0.3,1.6,0.3
		c0.8,0,1.5-0.1,2.1-0.3c0.6-0.2,1.1-0.4,1.5-0.7c0.4-0.3,0.7-0.5,0.9-0.8s0.4-0.5,0.5-0.6l3.5,2.1c-0.3,0.5-0.7,1-1.2,1.5
		c-0.5,0.5-1.1,1-1.8,1.4c-0.7,0.4-1.5,0.7-2.4,1c-0.9,0.3-2,0.4-3.2,0.4c-1.4,0-2.7-0.2-3.8-0.7c-1.1-0.5-2-1.1-2.8-1.9
		c-0.8-0.8-1.3-1.8-1.7-2.9c-0.4-1.1-0.6-2.3-0.6-3.6c0-1.3,0.2-2.5,0.6-3.6c0.4-1.1,1-2.1,1.7-2.9c0.8-0.8,1.7-1.4,2.8-1.9
		s2.4-0.7,3.8-0.7c1.4,0,2.7,0.2,3.7,0.7s1.9,1.1,2.6,2c0.7,0.9,1.2,1.9,1.5,3.2c0.3,1.2,0.5,2.6,0.5,4.2H188.6z M197.1,18.5
		c0-0.2-0.1-0.5-0.2-0.9c-0.1-0.4-0.4-0.8-0.7-1.1c-0.3-0.4-0.7-0.7-1.2-1c-0.5-0.3-1.1-0.4-1.8-0.4c-1.2,0-2.2,0.3-3,1
		c-0.8,0.7-1.3,1.5-1.5,2.4H197.1z"/>
	<path fill="#6DC28C" d="M218.9,26.5c0,0.9,0.1,1.6,0.2,2s0.3,0.7,0.4,0.9h-4.4c-0.1-0.2-0.2-0.5-0.3-0.8s-0.1-0.6-0.1-0.8
		c-1.6,1.3-3.5,2-5.7,2c-0.8,0-1.6-0.1-2.3-0.4c-0.7-0.3-1.3-0.6-1.9-1.1c-0.5-0.5-0.9-1-1.3-1.7c-0.3-0.7-0.5-1.4-0.5-2.3
		s0.2-1.6,0.5-2.2c0.3-0.6,0.7-1.2,1.2-1.6c0.5-0.4,1.1-0.8,1.7-1c0.6-0.3,1.3-0.5,1.9-0.6l1.8-0.3c0.4-0.1,0.8-0.1,1.2-0.2
		c0.4-0.1,0.8-0.2,1.3-0.3c0.4-0.1,0.8-0.2,1.2-0.3c0.4-0.1,0.7-0.2,0.9-0.3V17c0-0.8-0.3-1.4-1-1.7s-1.4-0.5-2.3-0.5
		c-1.2,0-2.1,0.2-2.5,0.6c-0.5,0.4-0.7,1.1-0.7,2l-4.2-0.2c0-1,0.2-1.9,0.6-2.6c0.4-0.7,1-1.3,1.6-1.8c0.7-0.5,1.5-0.8,2.4-1
		s1.8-0.3,2.8-0.3c0.9,0,1.9,0.1,2.7,0.2c0.9,0.1,1.7,0.4,2.4,0.8c0.7,0.4,1.3,1,1.7,1.7c0.4,0.7,0.6,1.7,0.6,3V26.5z M214.8,20.7
		c-0.5,0.3-1.2,0.5-2,0.6l-2.3,0.5c-0.8,0.2-1.5,0.4-2,0.7s-0.8,0.9-0.8,1.7c0,0.7,0.3,1.2,0.8,1.6c0.5,0.4,1.2,0.6,1.9,0.6
		c0.5,0,1-0.1,1.5-0.2s1-0.3,1.4-0.6c0.4-0.3,0.8-0.6,1.1-1s0.4-0.9,0.4-1.4V20.7z"/>
	<path fill="#6DC28C" d="M223.5,5.9h4.2V12h3.7v3h-3.7v8.8c0,0.7,0.1,1.2,0.3,1.6s0.7,0.5,1.5,0.5c0.3,0,0.6,0,0.9-0.1
		c0.3,0,0.6-0.1,0.9-0.1v3.4c-0.5,0.1-1,0.2-1.5,0.3c-0.5,0.1-1.1,0.1-1.8,0.1c-1.7,0-2.9-0.4-3.6-1.1c-0.7-0.7-1-1.8-1-3.1V15H221
		v-3h2.5V5.9z"/>
</g>
<path fill="#6DC28C" d="M230.5,5.4c0,0,2.5,0.1,2.9-0.8c0.4-0.8,1.2-4.4,3.3-4.4c2.4,0,3.3,2.8,3,3.9c-0.2,0.9-2.3,3.8-5.1,4.1
	C233.3,8.3,230.5,5.4,230.5,5.4z"/>
<polygon fill="#D795C1" points="239.8,2.9 240.4,2.6 239.8,2.5 240,1.8 239.5,2.2 "/>
<circle fill="#AFDAB5" cx="237.7" cy="1.9" r="0.6"/>
<path fill="none" stroke="#AFDAB5" stroke-width="1.4305" stroke-miterlimit="10" d="M236.4,3.9c0,0-0.3,2.2-2.5,2.2"/>
<polygon fill="#6DC28C" points="230.9,5.4 230.7,5 231.4,5.4 "/>
<polyline fill="none" stroke="#6DC28C" stroke-width="0.4768" stroke-miterlimit="10" points="236.4,7.8 236.4,9 236.1,9.3 "/>
<polyline fill="none" stroke="#6DC28C" stroke-width="0.4768" stroke-miterlimit="10" points="235,9.3 235.3,9 235.3,8.1 "/>
<line fill="none" stroke="#6DC28C" stroke-width="0.4768" stroke-miterlimit="10" x1="235.3" y1="9" x2="235.5" y2="9.3"/>
<line fill="none" stroke="#6DC28C" stroke-width="0.4768" stroke-miterlimit="10" x1="236.4" y1="9" x2="236.6" y2="9.3"/>
<circle fill="#FCFDFF" cx="237.9" cy="1.7" r="0.2"/>
<path fill="#EF5B80" d="M242.3,4.8V1.5c0-0.2-0.2-0.3-0.3-0.3s-0.3,0.2-0.3,0.3v3.2c-0.4,0.1-0.6,0.5-0.6,0.8c0,0.5,0.4,0.9,0.9,0.9
	s0.9-0.4,0.9-0.9C242.8,5.2,242.6,4.9,242.3,4.8z"/>
</svg>
